<?xml version="1.0" encoding="UTF-8"?>
<svg width="159px" height="50px" viewBox="0 0 159 50" version="1.1" xmlns="http://www.w3.org/2000/svg" xmlns:xlink="http://www.w3.org/1999/xlink">
    <title>FP logo R</title>
    <g id="FP-logo-R" stroke="none" stroke-width="1" fill="none" fill-rule="evenodd">
        <rect id="矩形" fill="#003366" x="0" y="0" width="1" height="50"></rect>
        <path d="M19.7450847,31.7708475 L19.7450847,26.0155932 L23.8610169,26.0155932 L23.8610169,24.3322034 L19.7450847,24.3322034 L19.7450847,21.4237288 L24.0020339,21.4237288 L24.0020339,19.740339 L18,19.740339 L18,31.7708475 L19.7450847,31.7708475 Z M26.6813559,31.7708475 L28.0210169,28.8447458 L33.1681356,28.8447458 L34.4372881,31.7708475 L36.420339,31.7708475 L30.6827119,19 L24.7247458,31.7708475 L26.6813559,31.7708475 Z M32.4366102,27.1613559 L28.7789831,27.1613559 L30.6474576,23.0718644 L32.4366102,27.1613559 Z M43.5945763,32 C44.2291525,32 44.7858757,31.9353672 45.2647458,31.8061017 C45.7436158,31.6768362 46.2621469,31.4476836 46.820339,31.1186441 L46.820339,28.9681356 C46.5030508,29.2384181 46.2459887,29.439661 46.0491525,29.5718644 C45.8523164,29.7040678 45.6275706,29.8259887 45.3749153,29.9376271 C44.7814689,30.1902825 44.1733333,30.3166102 43.5505085,30.3166102 C42.9923164,30.3166102 42.4561582,30.2137853 41.9420339,30.0081356 C41.4279096,29.8024859 40.9681356,29.5057627 40.5627119,29.1179661 C40.1102825,28.6890395 39.759209,28.179322 39.5094915,27.5888136 C39.259774,26.9983051 39.1349153,26.3857627 39.1349153,25.7511864 C39.1349153,25.1224859 39.259774,24.5114124 39.5094915,23.9179661 C39.759209,23.3245198 40.1102825,22.8162712 40.5627119,22.3932203 C40.9622599,22.0054237 41.420565,21.7087006 41.9376271,21.5030508 C42.4546893,21.2974011 42.9923164,21.1945763 43.5505085,21.1945763 C44.1733333,21.1945763 44.7814689,21.3238418 45.3749153,21.5823729 C45.6275706,21.6881356 45.8523164,21.8071186 46.0491525,21.939322 C46.2459887,22.0715254 46.5030508,22.2727684 46.820339,22.5430508 L46.820339,20.3925424 C46.2621469,20.0635028 45.7436158,19.8343503 45.2647458,19.7050847 C44.7858757,19.5758192 44.2291525,19.5111864 43.5945763,19.5111864 C42.6779661,19.5111864 41.8010169,19.7080226 40.9637288,20.1016949 C40.1264407,20.4953672 39.4110734,21.0447458 38.8176271,21.7498305 C38.3475706,22.3138983 37.9818079,22.9455367 37.720339,23.6447458 C37.4588701,24.3439548 37.3281356,25.0461017 37.3281356,25.7511864 C37.3281356,26.4621469 37.4588701,27.1672316 37.720339,27.8664407 C37.9818079,28.5656497 38.3475706,29.1972881 38.8176271,29.7613559 C39.4110734,30.4664407 40.1264407,31.0158192 40.9637288,31.4094915 C41.8010169,31.8031638 42.6779661,32 43.5945763,32 Z M53.5538983,32 C54.1943503,32 54.8024859,31.879548 55.3783051,31.6386441 C55.9541243,31.3977401 56.4506215,31.0569492 56.8677966,30.6162712 C57.6257627,29.8112994 58.0047458,28.7654237 58.0047458,27.4786441 L58.0047458,19.740339 L56.259661,19.740339 L56.259661,26.9850847 C56.259661,27.5844068 56.2229379,28.0485876 56.1494915,28.3776271 C56.0760452,28.7066667 55.939435,29.0063277 55.739661,29.2766102 C55.4987571,29.599774 55.1844068,29.8538983 54.7966102,30.0389831 C54.4088136,30.2240678 53.9945763,30.3166102 53.5538983,30.3166102 C53.1132203,30.3166102 52.6989831,30.2240678 52.3111864,30.0389831 C51.9233898,29.8538983 51.6090395,29.599774 51.3681356,29.2766102 C51.1742373,29.0063277 51.039096,28.7066667 50.9627119,28.3776271 C50.8863277,28.0485876 50.8481356,27.5844068 50.8481356,26.9850847 L50.8481356,19.740339 L49.1030508,19.740339 L49.1030508,27.4786441 C49.1030508,28.7654237 49.4820339,29.8112994 50.24,30.6162712 C50.6571751,31.0569492 51.1536723,31.3977401 51.7294915,31.6386441 C52.3053107,31.879548 52.9134463,32 53.5538983,32 Z M66.2542373,31.7708475 L66.2542373,30.0874576 L62.640678,30.0874576 L62.640678,19.740339 L60.8955932,19.740339 L60.8955932,31.7708475 L66.2542373,31.7708475 Z M71.2162712,31.7708475 L71.2162712,21.4237288 L74.0454237,21.4237288 L74.0454237,19.740339 L66.7037288,19.740339 L66.7037288,21.4237288 L69.4711864,21.4237288 L69.4711864,31.7708475 L71.2162712,31.7708475 Z M79.8535593,31.7708475 L79.8535593,26.5708475 L83.7932203,19.740339 L81.7044068,19.740339 L78.9810169,24.5525424 L76.2664407,19.740339 L74.1688136,19.740339 L78.1084746,26.5708475 L78.1084746,31.7708475 L79.8535593,31.7708475 Z M91.5138983,31.7708475 L91.5138983,26.8881356 L92.36,26.8881356 C93.8112994,26.8881356 94.8924294,26.4768362 95.6033898,25.6542373 C95.8736723,25.3428249 96.0822599,24.9814689 96.2291525,24.5701695 C96.3760452,24.1588701 96.4494915,23.7358192 96.4494915,23.3010169 C96.4494915,22.8250847 96.3569492,22.359435 96.1718644,21.9040678 C95.9867797,21.4487006 95.7326554,21.0623729 95.4094915,20.7450847 C94.8689266,20.2162712 94.199096,19.9077966 93.4,19.819661 C92.9416949,19.7667797 92.3923164,19.740339 91.7518644,19.740339 L89.7688136,19.740339 L89.7688136,31.7708475 L91.5138983,31.7708475 Z M91.5138983,25.2047458 L91.5138983,21.4149153 L92.1132203,21.4149153 C92.6302825,21.4149153 93.0474576,21.4575141 93.3647458,21.5427119 C93.6820339,21.6279096 93.9464407,21.7645198 94.1579661,21.9525424 C94.3283616,22.1111864 94.4620339,22.3065537 94.5589831,22.5386441 C94.6559322,22.7707345 94.7044068,23.0101695 94.7044068,23.2569492 C94.7044068,23.8033898 94.539887,24.2499435 94.2108475,24.5966102 C94.0051977,24.8140113 93.7451977,24.9697175 93.4308475,25.0637288 C93.1164972,25.1577401 92.7037288,25.2047458 92.1925424,25.2047458 L91.5138983,25.2047458 Z M100.133559,31.7708475 L100.133559,26.879322 L100.459661,26.879322 L103.896949,31.7708475 L106.117966,31.7708475 L102.389831,26.6766102 C103.071412,26.5238418 103.63548,26.2124294 104.082034,25.7423729 C104.393446,25.4133333 104.632881,25.0328814 104.800339,24.6010169 C104.967797,24.1691525 105.051525,23.7152542 105.051525,23.239322 C105.051525,22.7340113 104.947232,22.2477966 104.738644,21.780678 C104.530056,21.3135593 104.243616,20.9272316 103.879322,20.6216949 C103.503277,20.3102825 103.049379,20.0855367 102.517627,19.9474576 C101.985876,19.8093785 101.294011,19.740339 100.442034,19.740339 L98.3884746,19.740339 L98.3884746,31.7708475 L100.133559,31.7708475 Z M100.133559,25.2576271 L100.133559,21.4237288 L100.776949,21.4237288 C101.24113,21.4237288 101.62452,21.4648588 101.927119,21.5471186 C102.229718,21.6293785 102.480904,21.7645198 102.680678,21.9525424 C103.056723,22.2874576 103.244746,22.7281356 103.244746,23.2745763 C103.244746,23.5507345 103.191864,23.8151412 103.086102,24.0677966 C102.980339,24.320452 102.833446,24.5349153 102.645424,24.7111864 C102.245876,25.0754802 101.602486,25.2576271 100.715254,25.2576271 L100.133559,25.2576271 Z M113.688814,32 C114.623051,32 115.547006,31.7781921 116.460678,31.3345763 C117.37435,30.8909605 118.110282,30.3048588 118.668475,29.5762712 C119.073898,29.0415819 119.392655,28.4363842 119.624746,27.760678 C119.856836,27.0849718 119.972881,26.4151412 119.972881,25.7511864 C119.972881,25.0931073 119.856836,24.4247458 119.624746,23.7461017 C119.392655,23.0674576 119.073898,22.4666667 118.668475,21.9437288 C118.110282,21.2092655 117.37435,20.620226 116.460678,20.1766102 C115.547006,19.7329944 114.623051,19.5111864 113.688814,19.5111864 C112.748701,19.5111864 111.823277,19.7329944 110.912542,20.1766102 C110.001808,20.620226 109.261469,21.2063277 108.691525,21.9349153 C108.297853,22.4519774 107.983503,23.0542373 107.748475,23.7416949 C107.513446,24.4291525 107.395932,25.0989831 107.395932,25.7511864 C107.395932,26.4151412 107.511977,27.0849718 107.744068,27.760678 C107.976158,28.4363842 108.294915,29.0386441 108.700339,29.5674576 C109.258531,30.3019209 109.992994,30.8909605 110.903729,31.3345763 C111.814463,31.7781921 112.742825,32 113.688814,32 Z M113.688814,30.3166102 C112.989605,30.3166102 112.32565,30.1653107 111.696949,29.8627119 C111.068249,29.560113 110.557062,29.1444068 110.16339,28.6155932 C109.869605,28.2219209 109.636045,27.7665537 109.462712,27.2494915 C109.289379,26.7324294 109.202712,26.2329944 109.202712,25.7511864 C109.202712,25.2752542 109.289379,24.7772881 109.462712,24.2572881 C109.636045,23.7372881 109.869605,23.2833898 110.16339,22.8955932 C110.557062,22.3667797 111.068249,21.9510734 111.696949,21.6484746 C112.32565,21.3458757 112.989605,21.1945763 113.688814,21.1945763 C114.388023,21.1945763 115.050508,21.3458757 115.676271,21.6484746 C116.302034,21.9510734 116.811751,22.3667797 117.205424,22.8955932 C117.499209,23.2892655 117.732768,23.7446328 117.906102,24.2616949 C118.079435,24.7787571 118.166102,25.2752542 118.166102,25.7511864 C118.166102,26.2329944 118.079435,26.7324294 117.906102,27.2494915 C117.732768,27.7665537 117.499209,28.2219209 117.205424,28.6155932 C116.811751,29.1444068 116.300565,29.560113 115.671864,29.8627119 C115.043164,30.1653107 114.382147,30.3166102 113.688814,30.3166102 Z M124.000678,31.7708475 L124.000678,26.0155932 L128.11661,26.0155932 L128.11661,24.3322034 L124.000678,24.3322034 L124.000678,21.4237288 L128.257627,21.4237288 L128.257627,19.740339 L122.255593,19.740339 L122.255593,31.7708475 L124.000678,31.7708475 Z M132.109153,31.7708475 L132.109153,19.740339 L130.364068,19.740339 L130.364068,31.7708475 L132.109153,31.7708475 Z M140.429153,31.7708475 L140.429153,30.0874576 L136.815593,30.0874576 L136.815593,19.740339 L135.070508,19.740339 L135.070508,31.7708475 L140.429153,31.7708475 Z M148.79322,31.7708475 L148.79322,30.0874576 L143.892881,30.0874576 L143.892881,26.0155932 L148.64339,26.0155932 L148.64339,24.3322034 L143.892881,24.3322034 L143.892881,21.4237288 L148.79322,21.4237288 L148.79322,19.740339 L142.147797,19.740339 L142.147797,31.7708475 L148.79322,31.7708475 Z M154.477966,32 C155.494463,32 156.355254,31.6738983 157.060339,31.0216949 C157.459887,30.6515254 157.763955,30.2167232 157.972542,29.7172881 C158.18113,29.2178531 158.285424,28.680226 158.285424,28.1044068 C158.285424,27.3346893 158.062147,26.6560452 157.615593,26.0684746 C157.180791,25.4985311 156.458079,25.0079096 155.447458,24.5966102 L154.24,24.1118644 C153.358644,23.7534463 152.917966,23.280452 152.917966,22.6928814 C152.917966,22.2639548 153.086893,21.9070056 153.424746,21.6220339 C153.762599,21.3370621 154.187119,21.1945763 154.698305,21.1945763 C155.174237,21.1945763 155.562034,21.320904 155.861695,21.5735593 C156.055593,21.7263277 156.270056,22.0024859 156.505085,22.4020339 L157.976949,21.5294915 C157.788927,21.200452 157.617062,20.9419209 157.461356,20.7538983 C157.30565,20.5658757 157.119096,20.3866667 156.901695,20.2162712 C156.284746,19.7462147 155.559096,19.5111864 154.724746,19.5111864 C154.254689,19.5111864 153.796384,19.5890395 153.349831,19.7447458 C152.903277,19.900452 152.509605,20.1222599 152.168814,20.4101695 C151.463729,20.9918644 151.111186,21.7645198 151.111186,22.7281356 C151.111186,23.3627119 151.308023,23.9385311 151.701695,24.4555932 C152.083616,24.9550282 152.712316,25.3898305 153.587797,25.76 L154.751186,26.2535593 C155.368136,26.5120904 155.810282,26.8 156.077627,27.1172881 C156.344972,27.4345763 156.478644,27.8311864 156.478644,28.3071186 C156.478644,28.8829379 156.290621,29.3618079 155.914576,29.7437288 C155.538531,30.1256497 155.065537,30.3166102 154.495593,30.3166102 C154.166554,30.3166102 153.853672,30.2461017 153.556949,30.1050847 C153.260226,29.9640678 153.023729,29.7731073 152.847458,29.5322034 C152.729944,29.3618079 152.640339,29.1737853 152.578644,28.9681356 C152.516949,28.7624859 152.459661,28.4540113 152.40678,28.0427119 L150.573559,28.4481356 C150.649944,28.9651977 150.757175,29.3926554 150.895254,29.7305085 C151.033333,30.0683616 151.237514,30.3929944 151.507797,30.7044068 C152.248136,31.5681356 153.238192,32 154.477966,32 Z" id="FACULTYPROFILES" fill="#003366" fill-rule="nonzero"></path>
    </g>
</svg>