<?xml version="1.0" encoding="utf-8"?>
<!-- Generator: Adobe Illustrator 27.5.0, SVG Export Plug-In . SVG Version: 6.00 Build 0)  -->
<svg version="1.1" id="Layer_1" xmlns="http://www.w3.org/2000/svg" xmlns:xlink="http://www.w3.org/1999/xlink" x="0px" y="0px"
	 viewBox="0 0 200 126.7" style="enable-background:new 0 0 200 126.7;" xml:space="preserve">
<style type="text/css">
	.st0{fill:#CAB86A;}
	.st1{fill:#B3B3B3;}
	.st2{fill:#3E3A39;}
	.st3{fill:#3171B7;}
	.st4{fill:#44AF35;}
	.st5{fill:#E62419;}
	.st6{fill:#F08D1D;}
	.st7{fill:#714E9C;}
</style>
<g>
	<g>
		<path class="st0" d="M148.9,20.7c-0.2,0-0.5,0.1-0.6,0.3c-0.2,0.2-0.3,0.4-0.3,0.6v5.6c0,0.2,0.1,0.5,0.3,0.6
			c0.2,0.2,0.4,0.3,0.6,0.3c0.2,0,0.5-0.1,0.6-0.3c0.2-0.2,0.3-0.4,0.3-0.6v-5.6c0-0.2-0.1-0.5-0.3-0.6
			C149.3,20.8,149.1,20.7,148.9,20.7z"/>
		<path class="st0" d="M165.4,17.5h-27.8c-2,0-3.6,1.6-3.6,3.6v6.6c0,2,1.6,3.6,3.6,3.6h12.4l1.8,2.7l1.8-2.7h11.8
			c2,0,3.6-1.6,3.6-3.6v-6.6C169.1,19.1,167.4,17.5,165.4,17.5z M144.3,22.8h-1.6v-1.2c0-0.2-0.1-0.5-0.3-0.6
			c-0.2-0.2-0.4-0.3-0.6-0.3s-0.5,0.1-0.6,0.3c-0.2,0.2-0.3,0.4-0.3,0.6v5.6c0,0.2,0.1,0.5,0.3,0.6c0.2,0.2,0.4,0.3,0.6,0.3
			s0.5-0.1,0.6-0.3c0.2-0.2,0.3-0.4,0.3-0.6v-2h-0.9v-1.5h2.5v3.6c0,0.7-0.2,1.3-0.7,1.7c-0.5,0.5-1.1,0.7-1.7,0.7
			c-0.7,0-1.3-0.2-1.7-0.7c-0.5-0.5-0.7-1.1-0.7-1.7v-5.6c0-0.7,0.2-1.3,0.7-1.7c0.5-0.5,1.1-0.7,1.7-0.7c0.7,0,1.3,0.2,1.7,0.7
			c0.5,0.5,0.7,1.1,0.7,1.7V22.8z M151.3,27.2c0,0.7-0.2,1.3-0.7,1.7c-0.5,0.5-1.1,0.7-1.7,0.7c-0.7,0-1.3-0.2-1.7-0.7
			c-0.5-0.5-0.7-1.1-0.7-1.7v-5.6c0-0.7,0.2-1.3,0.7-1.7c0.5-0.5,1.1-0.7,1.7-0.7c0.7,0,1.3,0.2,1.7,0.7c0.5,0.5,0.7,1.1,0.7,1.7
			V27.2z M157.8,29.5h-4.2V19.3h1.5V28h2.7V29.5z M164.5,27.1c0,0.7-0.2,1.2-0.7,1.7c-0.5,0.5-1,0.7-1.7,0.7h-2.4V19.3h2.4
			c0.7,0,1.2,0.2,1.7,0.7c0.5,0.5,0.7,1.1,0.7,1.7V27.1z"/>
		<path class="st0" d="M162.1,20.9h-0.9V28h0.9c0.2,0,0.5-0.1,0.6-0.3c0.2-0.2,0.3-0.4,0.3-0.6v-5.3c0-0.2-0.1-0.5-0.3-0.6
			C162.6,21,162.4,20.9,162.1,20.9z"/>
	</g>
	<g>
		<path class="st0" d="M90,20.9h-1.6v-1.5h4.8v1.5h-1.6v8.7H90V20.9z"/>
		<path class="st0" d="M96.8,19.3c0.9,0,1.5,0.2,1.9,0.7c0.4,0.4,0.5,1,0.5,1.7v1.5c0,0.7-0.3,1.3-0.8,1.8l1.1,4.5h-1.7l-0.9-3.8
			c0,0-0.1,0-0.1,0h-0.9v3.8h-1.5V19.3H96.8z M97.7,21.8c0-0.6-0.3-0.9-0.9-0.9h-0.9v3.3h0.9c0.2,0,0.5-0.1,0.6-0.3
			c0.2-0.2,0.3-0.4,0.3-0.6V21.8z"/>
		<path class="st0" d="M102.3,29.5h-1.5V19.3h1.5V29.5z"/>
		<path class="st0" d="M106.1,19.3c0.7,0,1.3,0.2,1.8,0.7c0.4,0.5,0.6,1,0.6,1.7v1.5c0,0.7-0.2,1.2-0.7,1.7c-0.5,0.5-1,0.7-1.7,0.7
			h-0.9v3.8h-1.5V19.3H106.1z M107,21.8c0-0.3-0.1-0.5-0.2-0.6c-0.2-0.2-0.4-0.2-0.6-0.2h-0.9v3.3h0.9c0.2,0,0.5-0.1,0.6-0.3
			c0.2-0.2,0.3-0.4,0.3-0.6V21.8z"/>
		<path class="st0" d="M113.8,29.5h-4.2V19.3h1.5V28h2.7V29.5z"/>
		<path class="st0" d="M114.8,29.5V19.3h4.4v1.5h-2.8v2.8h2.1v1.5h-2.1V28h2.8v1.5H114.8z"/>
	</g>
	<path class="st0" d="M127.3,15.5c-1.8-2.2-4.3-3.7-7.3-4.6l5.9-8.6h-11.6C113.8,1,112.5,0,110.9,0c-2.1,0-3.8,1.7-3.8,3.8
		c0,2.1,1.7,3.8,3.8,3.8c1.6,0,3-1,3.6-2.5h6.2l-5.7,8.3h0.3c0.2,0,0.4,0,0.7-0.1c0.3,0,0.6,0,0.8,0c3,0,5.5,1,7.6,2.9
		c2,1.9,3.1,4.4,3.1,7.4c0,2.9-1,5.3-3.1,7.3c-2,2-4.5,3-7.4,3c-0.7,0-1.5-0.1-2.3-0.3c-0.8-0.2-1.6-0.5-2.4-0.8l-0.2-0.1l-0.9,2.7
		l0.1,0.1c1.1,0.4,2.1,0.7,3,0.9c0.9,0.2,1.8,0.3,2.7,0.3c3.6,0,6.8-1.3,9.3-3.9c2.5-2.6,3.8-5.7,3.8-9.3
		C130.2,20.5,129.2,17.8,127.3,15.5z M110.9,5c-0.7,0-1.2-0.5-1.2-1.2c0-0.7,0.5-1.2,1.2-1.2c0.7,0,1.2,0.5,1.2,1.2
		C112.1,4.5,111.6,5,110.9,5z"/>
	<g>
		<path class="st0" d="M136.7,12.7h1.1v-1.1h3.6v-1.1h-3.6V9.8h2.8c0.2,0,0.3-0.1,0.3-0.3V4.9c0-0.1-0.1-0.3-0.3-0.3h-2.8V4h3.5V2.9
			h-3.5V2.2h-1.1v0.6h-3.5V4h3.5v0.6h-2.9c-0.2,0-0.3,0.1-0.3,0.3v4.6c0,0.2,0.1,0.3,0.3,0.3h2.9v0.8H133v1.1h3.7V12.7z M137.8,6.6
			V5.7h2v0.9H137.8z M137.8,8.7V7.7h2v0.9H137.8z M134.7,6.6V5.7h2v0.9H134.7z M136.7,7.7v0.9h-2V7.7H136.7z"/>
		<path class="st0" d="M131.7,7.2l0.2,0.1l0.6-0.9l-0.1-0.1c-0.7-0.5-1.4-0.9-2-1.2l-0.2-0.1l-0.6,1l0.2,0.1
			C130.4,6.3,131,6.7,131.7,7.2z"/>
		<path class="st0" d="M133.5,12.7c-0.3-0.1-0.5-0.2-0.6-0.3c-0.2-0.1-0.3-0.3-0.3-0.4V8.3c0-0.2-0.1-0.3-0.4-0.4H130v1.1h1.5v2.8
			c-0.1,0.3-0.2,0.6-0.5,0.7c-0.3,0.2-0.7,0.3-1.2,0.4l-0.2,0l0.1,0.2c0.1,0.3,0.1,0.5,0.2,0.7l0,0.2l0.2,0c0.9-0.1,1.6-0.4,2-0.9
			c0.6,0.6,1.7,0.9,3.3,0.9c1.8,0,3.8,0,5.9-0.1l0.2,0l0.2-1.2l-0.2,0C136.8,12.9,134.1,12.9,133.5,12.7z"/>
		<path class="st0" d="M132.1,4.7l0.2,0.1l0.6-0.9l-0.1-0.1c-0.7-0.6-1.4-1-2-1.3l-0.2-0.1l-0.6,1l0.2,0.1
			C130.7,3.8,131.3,4.2,132.1,4.7z"/>
		<path class="st0" d="M153.3,6.9V6.1c0.6,0.3,1.1,0.5,1.6,0.7l0.1,0l0.7-1.1l-0.2-0.1c-1.9-0.6-3.8-1.8-5.7-3.4l-0.1,0h-0.8
			l-0.1,0.1c-1.6,1.5-3.5,2.7-5.5,3.5l-0.2,0.1l0.7,1.1l0.1,0c0.5-0.2,1-0.4,1.5-0.6v0.6h3.3v1.4h-5.3v1.1h2.1l-0.9,0.5l0.1,0.2
			c0.5,0.6,1,1.6,1.5,2.7h-2.6V14h11.4v-1.1h-2.6c0.4-0.6,0.9-1.5,1.5-2.7l0.1-0.2l-0.9-0.5h2.1V8.3h-5.4V6.9H153.3z M146.3,5.8
			c1-0.6,2-1.3,3-2.2c0.8,0.6,1.6,1.2,2.6,1.8c0.3,0.2,0.5,0.3,0.8,0.4H146.3z M147.3,12.6l-0.1-0.2c-0.5-1.2-1-2.2-1.6-2.9
			l-0.1-0.1h3.2v3.4h-2L147.3,12.6z M153.1,9.6c-0.4,1-1,2.1-1.8,3.3h-1.3V9.4h3.2L153.1,9.6z"/>
		<path class="st0" d="M168.9,13.1c-2.1,0.1-3.7-0.5-4.8-1.8h4.8v-1.1h-2.7c-0.2-0.2-0.3-0.4-0.5-0.5c0.7,0.1,1.2,0.1,1.6-0.1
			c0.3-0.2,0.5-0.5,0.5-0.9V7.5h1.1V6.4h-1.1V5.1h-1.1c0.8-0.5,1.5-1.1,1.9-1.8l0.1-0.2l-0.7-0.5h-2.4l0.1-0.2L164.6,2l-0.1,0.1
			c-0.5,0.6-1.4,1.1-2.7,1.3l0,0v-1h-1.1v2.1h-1.6V2.5h-1.1v2.7c0,0.3,0.2,0.5,0.5,0.6h2.2v0.4h-3.1v1.1h0.8c-0.1,0.7-0.5,1.3-1,2
			l-0.1,0.2l1,0.6l0.1-0.1c0.6-0.8,1-1.7,1.2-2.6h1.1v2.4h1.1V4l0.2,0.6l0.2,0c0.1,0,0.3-0.1,0.4-0.1c0.3,0.2,0.5,0.4,0.8,0.6
			c-0.4,0-0.8,0.1-1.4,0.1l-0.2,0l0.3,1.1l0.2,0c1.8-0.2,3.3-0.6,4.5-1.2v1.3h-4.8v1.1h1.3c0.3,0.3,0.6,0.8,0.9,1.4l0.1,0.2l1-0.6
			L165,8.4c-0.2-0.3-0.3-0.6-0.5-0.8h2.2v0.9c0,0,0,0.1,0,0.1c0,0.1-0.1,0.1-0.2,0.1c-0.2,0-0.6,0-1-0.1l-0.2-0.1v0.9
			c-0.1-0.1-0.2-0.2-0.4-0.3l-0.2-0.1l-0.6,1l0.2,0.1c0.1,0.1,0.2,0.1,0.3,0.2h-0.9l0-1.4h-1.1v1.1c0,0.1,0,0.2,0,0.3h-5.3v1.1h4.9
			c-0.2,0.3-0.5,0.5-0.8,0.7c-1,0.5-2.4,0.8-4,1l-0.2,0l0.2,1.2l0.2,0c3-0.3,4.8-1.1,5.7-2.3c1.2,1.5,3.1,2.3,5.4,2.3
			c0,0,0.1,0,0.1,0l0.1,0l0.3-1.1L168.9,13.1z M163.8,4c0.1,0,0.1-0.1,0.2-0.1c0.3,0.2,0.7,0.4,1.2,0.8c-0.1,0-0.3,0.1-0.4,0.1
			c-0.2-0.2-0.5-0.4-0.8-0.7L163.8,4z M165.7,3.7h1.2c-0.2,0.1-0.4,0.3-0.6,0.4C166.2,4,166,3.9,165.7,3.7z"/>
	</g>
	<path class="st0" d="M174.6,26.7h-1.8v3h1.7c6.3,0,11.5,5.1,11.5,11.5v71.1c0,6.3-5.1,11.5-11.5,11.5H27.9
		c-6.3,0-11.5-5.1-11.5-11.5V41.2c0-6.3,5.1-11.5,11.5-11.5h1.7v-3h-1.8c-7.9,0-14.4,6.4-14.4,14.4v71.2c0,7.9,6.4,14.4,14.4,14.4
		h146.7c7.9,0,14.4-6.4,14.4-14.4V41.1C189,33.2,182.5,26.7,174.6,26.7z"/>
	<g>
		<path class="st1" d="M121.9,79.3c0,0-0.1,0.1-0.1,0.1c-0.1,0.1-0.2,0.2-0.3,0.4l0,0c-0.1,0.1-0.2,0.2-0.3,0.3
			c-0.1,0.1-0.1,0.1-0.2,0.2c0,0,0,0-0.1,0.1c0,0-0.1,0.1-0.1,0.1c-1.8,1.6-5.6,2.3-8.3-1.5c0.4,1.1,0.7,2.3,0.7,3.6
			c0,1.3-0.2,2.5-0.7,3.6c0.1-0.1,0.2-0.2,0.3-0.4c0.1-0.1,0.2-0.2,0.3-0.4l0,0c0.1-0.1,0.2-0.2,0.3-0.3c0.1-0.1,0.1-0.1,0.2-0.2
			c0,0,0,0,0.1-0.1c0,0,0.1-0.1,0.1-0.1c1.8-1.6,5.6-2.3,8.4,1.6c-0.5-1.2-0.8-2.5-0.8-3.8C121.4,81.4,121.6,80.3,121.9,79.3z"/>
		<path class="st1" d="M149.9,79.4c-0.1,0.1-0.2,0.2-0.3,0.3l0,0c-0.1,0.1-0.2,0.2-0.3,0.3c-0.1,0.1-0.1,0.1-0.2,0.2
			c0,0,0,0-0.1,0.1c0,0-0.1,0.1-0.1,0.1c-1.8,1.6-5.5,2.3-8.2-1.4c0.4,1.1,0.6,2.3,0.6,3.5c0,1.2-0.2,2.4-0.6,3.5
			c0.1-0.1,0.1-0.2,0.2-0.2c0.1-0.1,0.2-0.2,0.3-0.4l0,0c0.1-0.1,0.2-0.2,0.3-0.3c0.1-0.1,0.1-0.1,0.2-0.2c0,0,0,0,0.1-0.1
			c0,0,0.1-0.1,0.1-0.1c1.8-1.6,5.5-2.2,8.2,1.4c-0.4-1.1-0.7-2.4-0.7-3.6C149.4,81.4,149.5,80.4,149.9,79.4z"/>
		<path class="st1" d="M140.8,59.9c0-0.1,0.1-0.1,0.1-0.2c0.1-0.1,0.2-0.2,0.3-0.4l0,0c0.1-0.1,0.2-0.2,0.3-0.3
			c0.1-0.1,0.1-0.1,0.2-0.2c0,0,0,0,0.1-0.1c0,0,0.1-0.1,0.1-0.1c1.8-1.6,5.4-2.2,8.2,1.3c-0.4-1.1-0.6-2.3-0.6-3.5
			c0-1.1,0.2-2.2,0.5-3.2c0,0,0,0,0,0c-0.1,0.1-0.2,0.2-0.3,0.4l0,0c-0.1,0.1-0.2,0.2-0.3,0.3c-0.1,0.1-0.1,0.1-0.2,0.2
			c0,0,0,0-0.1,0.1c0,0-0.1,0.1-0.1,0.1c-1.8,1.6-5.5,2.3-8.3-1.5c0.4,1.1,0.7,2.4,0.7,3.7C141.4,57.8,141.2,58.9,140.8,59.9z"/>
		<path class="st1" d="M162.2,66.2c-0.9,0.3-1.8,0.4-2.8,0.4c-0.9,0-1.7-0.1-2.5-0.3c0,0,0,0,0.1,0c0.1,0,0.1,0.1,0.2,0.1
			c0,0,0,0,0.1,0.1c0,0,0.1,0.1,0.1,0.1c1.4,1.4,2.1,4-0.3,6.2c0.8-0.2,1.6-0.3,2.5-0.3c0.8,0,1.5,0.1,2.2,0.2c0,0,0,0,0,0
			C160,71.3,159.4,68.5,162.2,66.2z"/>
		<path class="st1" d="M133.5,72.7C133.5,72.7,133.5,72.7,133.5,72.7c-1.5-1.5-2.2-4.2,0.6-6.5c-0.9,0.2-1.8,0.4-2.7,0.4
			c-0.9,0-1.8-0.1-2.6-0.3c0,0,0.1,0,0.1,0.1c0.1,0,0.1,0.1,0.2,0.1c0,0,0,0,0.1,0.1c0,0,0.1,0.1,0.1,0.1c1.4,1.4,2.1,4-0.3,6.2
			c0.8-0.2,1.7-0.3,2.6-0.3C132.1,72.5,132.8,72.6,133.5,72.7z"/>
		<g>
			<g>
				<g>
					<path class="st2" d="M46.8,66.1l1.3-0.2c-0.2-1.2-0.6-2.6-1.2-4.3L45.7,62C46.2,63.6,46.6,65,46.8,66.1z"/>
					<path class="st2" d="M46.7,66.3l0-0.1c-0.2-1.1-0.6-2.5-1.1-4.2l0-0.1l1.5-0.4l0,0.1c0.6,1.7,0.9,3.1,1.2,4.3l0,0.1L46.7,66.3z
						 M45.8,62.1c0.5,1.5,0.8,2.8,1.1,3.9l1.1-0.2c-0.2-1.1-0.6-2.5-1.1-4L45.8,62.1z"/>
				</g>
				<g>
					<path class="st2" d="M42.4,66.2c0-1.3-0.1-2.8-0.3-4.4l-1.3,0.1c0.2,1.4,0.3,2.8,0.3,4.3H42.4z"/>
					<path class="st2" d="M42.4,66.2h-1.6l0-0.1c0-1.5,0-2.9-0.3-4.3l0-0.1l1.6-0.1l0,0.1c0.2,1.6,0.3,3.1,0.3,4.4V66.2z M41.2,66.2
						h1.1c0-1.2-0.1-2.6-0.3-4.1l-1.1,0.1C41.1,63.4,41.2,64.8,41.2,66.2z"/>
				</g>
				<g>
					<path class="st2" d="M50.9,62.1c0.8,1,1.8,2.4,2.8,4.3l1.2-0.7c-0.9-1.8-1.9-3.2-2.8-4.3L50.9,62.1z"/>
					<path class="st2" d="M53.6,66.6l-0.1-0.1c-1-1.8-1.9-3.3-2.8-4.2l-0.1-0.1l1.3-0.9l0.1,0.1c1,1.1,1.9,2.6,2.8,4.3l0.1,0.1
						L53.6,66.6z M51.1,62.2c0.8,1,1.7,2.3,2.6,4.1l1-0.6c-0.9-1.7-1.8-3-2.7-4.1L51.1,62.2z"/>
				</g>
				<g>
					<path class="st2" d="M37.2,48.5h0.3V53h-3.8v1.5h3.8v4.5h-3.4v1.5h20.7v-1.5h-2.6v-4.5h3V53h-3v-4.5h2.3V47H38.1
						c0.3-0.6,0.6-1.1,0.8-1.7l-1.3-0.5c-0.7,1.4-1.3,2.5-1.9,3.1c-0.8,0.8-1.6,1.5-2.6,2.1l0.9,1.1C35.2,50.5,37.2,48.5,37.2,48.5z
						 M47.3,48.5h3.4V53h-3.4V48.5z M47.3,54.5h3.4v4.5h-3.4V54.5z M42.8,48.5h3V53h-3V48.5z M42.8,54.5h3v4.5h-3V54.5z M39,48.5
						h2.6V53H39V48.5z M39,54.5h2.6v4.5H39V54.5z"/>
					<path class="st2" d="M54.8,60.6H34.1v-1.5h3v-4.5h-3.8V53h3.8v-4.4c-1,1.2-2,2.1-3,2.8L34,51.5l-1-1.3l0.1-0.1
						c0.9-0.6,1.8-1.3,2.5-2.1c0.6-0.6,1.2-1.7,1.8-3.1l0-0.1l1.5,0.6l-0.1,0.1c-0.2,0.5-0.5,1-0.7,1.5h16.3v1.5h-2.3V53h3v1.5h-3
						v4.5h2.6V60.6z M34.1,60.2h20.3v-1.1h-2.6v-4.9h3V53h-3v-4.9H54V47H37.9l0.1-0.2c0.3-0.5,0.5-1,0.8-1.5l-1-0.4
						c-0.6,1.4-1.2,2.4-1.8,3.1c-0.7,0.8-1.5,1.5-2.5,2.1l0.7,0.9c1-0.6,2-1.6,3-2.8l0,0h0.3V53h-3.8v1.1h3.8v4.9h-3.4V60.2z
						 M51,59.1h-3.8v-4.9H51V59.1z M47.7,59.1h3v-4.5h-3V59.1z M46.2,59.1h-3.4v-4.9h3.4V59.1z M43.1,59.1h2.6v-4.5h-2.6V59.1z
						 M41.6,59.1h-3v-4.9h3V59.1z M39,59.1h2.6v-4.5H39V59.1z M51,53h-3.8v-4.9H51V53z M47.7,53h3v-4.5h-3V53z M46.2,53h-3.4v-4.9
						h3.4V53z M43.1,53h2.6v-4.5h-2.6V53z M41.6,53h-3v-4.9h3V53z M39,53h2.6v-4.5H39V53z"/>
				</g>
				<g>
					<path class="st2" d="M33.6,65.5l0.8,1.1c1.2-0.9,2.3-2.3,3.3-4.3l-1.2-0.7C35.7,63.2,34.7,64.5,33.6,65.5z"/>
					<path class="st2" d="M34.3,66.7l-0.9-1.2l0.1-0.1c1.1-1,2.1-2.2,2.9-3.8l0.1-0.1l1.4,0.8l-0.1,0.1
						C36.8,64.3,35.7,65.7,34.3,66.7L34.3,66.7z M33.7,65.5l0.7,0.9c1.1-0.9,2.2-2.2,3.1-4l-1-0.5C35.7,63.3,34.8,64.6,33.7,65.5z"
						/>
				</g>
				<g>
					<path class="st2" d="M64.9,60.9c1,0.4,2,0.4,2.7,0.1c0.4-0.2,0.8-0.5,1-0.9c0.6-0.9,0.7-2.1,0.3-3.6c-0.2-1-0.7-2-1.4-3.1
						c-0.1-0.2-0.1-0.6,0-1.2l1.7-5.9l-1-0.4h-4.8c-0.1-0.2-0.1-0.2-0.1-0.2c0,0,0,0.1,0,0.1v20.7h1.5V60.9z M64.6,47.1
						C64.6,47.1,64.6,47.1,64.6,47.1c0-0.1,0.1-0.1,0.1-0.1h2.9l-1.6,5.6c-0.1,0.3-0.1,0.5,0.1,0.7c1.4,2.6,1.9,4.4,1.5,5.6
						c-0.2,0.5-0.4,0.7-0.7,0.9c-0.6,0.2-1.3,0.1-2.2-0.4V47.1z"/>
					<path class="st2" d="M64.9,66.6h-1.5V45.8c0-0.1,0-0.2,0.1-0.2c0.1-0.1,0.1-0.1,0.2-0.1h4.5l1.1,0.7l-1.7,6
						c-0.1,0.5-0.1,0.9,0,1.1c0.7,1.1,1.1,2.1,1.4,3.1c0.3,1.5,0.2,2.8-0.3,3.7c-0.3,0.5-0.6,0.8-1,1c-0.7,0.3-1.6,0.3-2.7,0V66.6z
						 M63.4,66.6h1.1v-5.7l0.2,0.1c1.2,0.4,2.1,0.4,2.9,0.1c0.4-0.1,0.7-0.4,1-0.9c0.5-0.9,0.6-2,0.3-3.5c-0.2-0.9-0.7-2-1.4-3.1
						c-0.2-0.3-0.2-0.7,0-1.3l1.7-5.8l-0.9-0.6h-4.8c0,0,0,0,0,0c0,0,0,0,0,0.1L63.4,66.6z M66.4,60.1c-0.5,0-1.1-0.2-1.7-0.5
						l-0.1,0V47.3c0-0.1,0-0.1,0.1-0.2c0,0,0.1-0.1,0.2-0.1h3l-1.7,5.7c-0.1,0.3-0.1,0.5,0.1,0.6c1.4,2.6,1.9,4.5,1.5,5.7
						c-0.2,0.5-0.5,0.8-0.8,0.9C66.8,60.1,66.6,60.1,66.4,60.1z M64.9,59.2c0.8,0.4,1.5,0.5,2.1,0.4c0.2-0.1,0.4-0.4,0.6-0.8
						c0.4-1.1-0.2-3-1.5-5.5C66,53,65.9,52.8,66,52.4l1.6-5.4h-2.7V59.2z"/>
				</g>
				<g>
					<path class="st2" d="M77.3,66.6v-3h6.4v-1.5h-6.4v-1.9h5.1c0.1,0,0.2-0.1,0.2-0.2v-6.7c0-0.1-0.1-0.2-0.2-0.2H71.1
						C71,53,71,53.1,71,53.2V60c0,0.1,0.1,0.2,0.2,0.2h4.7v1.9h-6.4v1.5h6.4v3H77.3z M72.1,54.6C72.1,54.6,72.1,54.6,72.1,54.6
						l9.3,0c0.1,0,0.1,0,0.1,0V56h-9.4V54.6z M72.1,58.7C72.1,58.7,72.1,58.7,72.1,58.7l0-1.5h9.4v1.4c0,0.1,0,0.1-0.1,0.1H72.1z"/>
					<path class="st2" d="M77.3,66.6h-1.5v-3h-6.4v-1.9h6.4v-1.5h-5c-0.2,0-0.3-0.1-0.3-0.3v-6.5c0-0.2,0.1-0.3,0.3-0.3h11.8
						c0.3,0,0.3,0.2,0.3,0.3v6.5c0,0.2-0.1,0.3-0.3,0.3h-5.3v1.5h6.4v1.9h-6.4V66.6z M76.2,66.2h1.1v-3h6.4v-1.1h-6.4v-2.3h5.2
						c0,0,0.1,0,0.1-0.1v-6.6c0,0,0-0.1-0.1-0.1L71,53c0,0-0.1,0-0.1,0.1l0,6.6c0,0.1,0,0.1,0.1,0.1h5.2v2.3h-6.4v1.1h6.4V66.2z
						 M72.2,59.1c-0.1,0-0.1-0.1-0.2-0.2l0,0v-1.7h9.4v1.6c0,0.1-0.1,0.2-0.2,0.3L72.2,59.1z M72.5,58.7h9l0-1.1h-9V58.7z M81.5,56
						h-9.4v-1.7c0,0,0-0.1,0.1-0.2l0.1,0h9c0.1,0,0.2,0.1,0.2,0.1l0,0V56z M72.5,55.7h9v-1.1h-9V55.7z"/>
				</g>
				<g>
					<path class="st2" d="M83.7,50h-3.5c0.1-0.4,0.2-0.7,0.4-1.1c0.1-0.5,0.2-0.8,0.3-1.1h2v-1.5h-5.6v-1.1h-1.1v1.1h-5.6v1.5h2.1
						c0.2,0.5,0.4,1.2,0.7,2.3h-3.9v1.5h14.3V50z M78.8,50h-4c-0.1-0.4-0.2-0.9-0.4-1.4c-0.1-0.3-0.2-0.6-0.3-0.8h5.4
						C79.3,48.5,79.1,49.3,78.8,50z"/>
					<path class="st2" d="M83.7,51.5H69.1V50h4.1c-0.3-1-0.5-1.6-0.7-2.3h-2.3v-1.5h5.6v-1.1h1.9v1.1h5.6v1.5h-2.3
						c-0.1,0.3-0.2,0.7-0.3,1.2c-0.1,0.4-0.3,0.8-0.4,1.1h3.4V51.5z M69.5,51.5h13.9v-1.1h-3.2l0-0.3c0.1-0.4,0.2-0.8,0.4-1.2
						c0.1-0.5,0.3-0.9,0.3-1.1l0,0H83v-1.1h-5.6v-1.1h-1.1v1.1h-5.6v1.1h2.2l0,0.1c0.2,0.5,0.4,1.3,0.8,2.4l0,0.2h-4.1V51.5z
						 M79,50.4h-4.4l0-0.1c-0.1-0.5-0.3-1-0.4-1.5c-0.1-0.3-0.2-0.6-0.3-0.9l-0.1-0.2h6.1l0,0.2C79.6,48.7,79.3,49.5,79,50.4
						L79,50.4z M74.6,50h4.3c0.3-0.7,0.5-1.5,0.7-2.3H74c0.1,0.2,0.2,0.5,0.2,0.8C74.4,49.1,74.5,49.6,74.6,50z"/>
				</g>
				<g>
					<path class="st2" d="M97.8,65l1,1c1.7-1.2,2.9-2.8,3.3-4.7c0.4,0.8,0.7,1.5,1,2.2l1.2-0.6c-0.5-1-1.5-2.6-1.5-2.6h1.9v-1.5
						h-2.3V56h1.5v-1.5h-3.7c0.1-0.5,0.2-1,0.2-1.5l-1.4-0.1c-0.1,1.5-0.7,2.8-1.5,4l1.2,0.8c0.4-0.5,0.7-1.1,1.1-1.6h1.1v2.6h-2.6
						v1.5h2.7C100.6,62.4,99.6,64.1,97.8,65z"/>
					<path class="st2" d="M98.4,65.8l-1.3-1.1l0.2-0.1c1.8-0.8,3-2.3,3.4-4.4h-2.3v-1.5h2.6V56H100c0,0-0.7,1.2-1,1.7l-0.1,0.1
						l-1.4-0.9l0.1-0.1c0.9-1.1,1.4-2.4,1.5-3.9l0-0.1l1.6,0.1l0,0.1c0,0.5-0.1,1-0.2,1.5h3.9V56h-1.9v2.6h2.3v1.5H103
						c0.5,0.8,1,1.6,1.5,2.5l0.1,0.1l-1.6,0.7l-0.1-0.1c-0.2-0.6-0.5-1.1-0.9-1.7C101.5,63.3,100.3,64.7,98.4,65.8L98.4,65.8z
						 M98.2,65l0.8,0.8c1.6-1.2,2.7-2.7,3.2-4.6l0.1-0.3l0.1,0.3c0.4,0.7,0.7,1.4,0.9,2.1l1-0.5c-0.4-0.9-0.9-1.9-1.4-2.7l-0.1-0.2
						h1.6v-1.1h-2.3v-3h1.9v-1.1h-3.6l0-0.2c0.1-0.4,0.2-0.9,0.2-1.4l-1-0.1c-0.1,1.5-0.6,2.8-1.4,3.8l0.9,0.6
						c0.3-0.5,0.6-1,0.9-1.7l0-0.1h1.3v3h-2.6v1.1h2.6l0,0.1C100.9,62.3,99.9,64,98.2,65z"/>
				</g>
				<g>
					<path class="st2" d="M108,49.6c-0.4-0.4-0.7-0.7-0.8-0.9l-1,0.9c0.8,0.8,1.6,1.7,2.2,2.6l1.1-0.8c-0.2-0.2-0.4-0.5-0.6-0.8
						c1.3-1.1,2.3-2.4,2.9-3.7l-0.8-0.9h-5.9v1.5h5C109.8,48,109.1,48.7,108,49.6z"/>
					<path class="st2" d="M108,52L108,52c-0.7-0.9-1.4-1.8-2.1-2.5l-0.1-0.1l1.2-0.9l0.1,0.1c0.1,0.2,0.4,0.4,0.7,0.8
						c0.8-0.7,1.4-1.3,1.8-1.9h-4.8v-1.5h5.8l0.9,1l0,0.1c-0.6,1.3-1.5,2.4-2.7,3.5c0.2,0.2,0.3,0.4,0.5,0.6l0.1,0.1L108,52z
						 M106.4,49.4c0.8,0.8,1.5,1.6,2.1,2.5l0.9-0.6c-0.2-0.2-0.3-0.4-0.5-0.7l-0.1-0.1l0.1-0.1c1.3-1.1,2.3-2.3,2.9-3.7l-0.7-0.9
						h-5.9V47h5.3l-0.1,0.2c-0.4,0.8-1.2,1.6-2.2,2.4l-0.1,0.1l-0.1-0.1c-0.3-0.4-0.6-0.7-0.8-0.8L106.4,49.4z"/>
				</g>
				<g>
					<path class="st2" d="M99.2,51.8c0.2,0.2,0.9,0.5,0.9,0.5h2.1c0,0,1.3-0.4,1.6-0.8c0.2-0.2,0.5-0.9,0.8-1.9l-1.3-0.6
						c-0.5,1-0.9,1.5-1,1.6c-0.2,0.1-0.4,0.1-0.6,0.2h-1.1c-0.4-0.1-0.6-0.2-0.8-0.4c-0.1-0.1-0.1-0.6-0.1-0.6V49c0,0,3.2-1.3,4.2-2
						l-0.8-1.1c-1,0.6-2.1,1.2-3.4,1.7v-1.7h-1.5V50C98.5,50.8,98.7,51.4,99.2,51.8z"/>
					<path class="st2" d="M102,52.3h-2c-0.4,0-0.7-0.1-1-0.3c-0.5-0.4-0.7-1-0.7-1.9v-4.2h1.5v1.9c1.1-0.4,2.1-1,3-1.5l0.1-0.1
						l0.9,1.2l-0.1,0.1c-1,0.6-2.3,1.3-3.9,1.9v0.6c0,0.4,0,0.5,0.1,0.5c0.1,0.1,0.3,0.2,0.6,0.2h1c0.2,0,0.4,0,0.5-0.1
						c0,0,0.3-0.2,0.9-1.5l0.1-0.1l1.4,0.6l0,0.1c-0.4,1-0.6,1.6-0.8,1.8C103.2,52.1,102.7,52.3,102,52.3z M98.8,45.9V50
						c0,0.8,0.2,1.4,0.6,1.7l0,0c0.2,0.2,0.5,0.3,0.9,0.3h2.1c0.7,0,1.2-0.2,1.6-0.6c0.2-0.2,0.4-0.8,0.8-1.8l-1.1-0.5
						c-0.7,1.3-0.9,1.5-1,1.6c-0.2,0.1-0.4,0.1-0.7,0.1h-1.1c-0.4,0-0.7-0.1-0.9-0.3c-0.1-0.1-0.1-0.4-0.1-0.7v-0.8l0.1,0
						c1.7-0.6,3.1-1.3,4.1-1.9l-0.7-0.9c-1,0.6-2.1,1.2-3.4,1.7l-0.2,0.1v-1.9H98.8z"/>
				</g>
				<g>
					<path class="st2" d="M107.4,62.9c-0.2-0.6-0.6-1.7-0.9-3.3c0-0.9,0-2,0-3.3h-1.4c0,1.3,0,2.4,0,3.2c0,0,0,0.1,0,0.1
						c0,1.2-0.2,2.2-0.4,3c0,0,0,0,0,0.1c-0.4,1-1.1,1.9-2.1,2.8l1.1,0.8c1.1-1,1.9-2.2,2.3-3.5c0.7,1.6,1.8,2.6,3.4,3
						c0.6,0.1,1.5,0.2,2.6,0.3l0.6-1.3c-1.2,0-3.6-0.6-3.6-0.6v-4.1h2.6v-1.5h-2.6v-4.5h2.1c-0.1,0.7-0.4,1.5-0.8,2.6l1.3,0.3
						c0.4-0.9,0.7-2.1,0.9-3.7l-0.9-0.8h-6.8v1.5h2.6V62.9z"/>
					<path class="st2" d="M103.8,66.8l-1.4-1l0.1-0.1c1-0.8,1.7-1.8,2.1-2.8c0,0,0-0.1,0.1-0.1c0.2-0.8,0.4-1.8,0.4-3
						c0-0.1,0-0.1,0-0.2c0-0.8,0-1.9,0-3.2v-0.1h1.5v0c0,1.3,0,2.3-0.1,3.2c0.3,1.2,0.6,2.2,0.8,2.8v-8h-2.6v-1.9h6.8l1,0.7l0,0.1
						c-0.2,1.6-0.6,2.8-0.9,3.7l0,0.1l-1.6-0.4l0.1-0.1c0.4-1,0.7-1.8,0.8-2.2h-1.6v4.1h2.6v1.5h-2.6v4.2c1.1,0.4,2.3,0.6,3.4,0.6
						l0.2,0l-0.7,1.6l-0.1,0c-1.1-0.1-2-0.2-2.6-0.3c-1.5-0.4-2.6-1.3-3.4-2.8C105.7,64.7,105,65.8,103.8,66.8L103.8,66.8z
						 M102.7,66.4l1,0.7c1.1-1,1.8-2.3,2.2-3.6l0.1-0.3l0.1,0.3c0.7,1.7,1.8,2.7,3.3,3.1c0.6,0.1,1.4,0.3,2.5,0.3l0.5-1.1
						c-1.2-0.1-2.3-0.3-3.4-0.7l-0.1,0v-5.3h2.6v-1.1h-2.6v-4.5h2.3l0,0.1c-0.1,0.6-0.4,1.4-0.8,2.5l1.1,0.3c0.3-0.9,0.6-2,0.9-3.5
						l-0.8-0.5h-6.9v1.1h3V64l-0.2-0.3c-0.5-0.7-0.9-1.9-1.2-3.5c0-0.9,0-2,0-3.3h-1.1c0,1.3,0,2.4,0,3.2l0,0.1c0,0,0,0,0,0l0,0l0,0
						c0,1.3-0.2,2.4-0.4,3.2l0,0.1l0,0c0,0,0,0,0,0C104.4,64.6,103.7,65.5,102.7,66.4z"/>
				</g>
				<g>
					<path class="st2" d="M93.5,55.5v11.1h1.1v-2.3h2.1c0.3,0,0.5-0.2,0.5-0.5V52.7c0-0.3-0.2-0.4-0.5-0.4h-2.3
						c0.4-1.4,0.7-3,0.9-4.9h2.3v-1.5h-5.3v1.5h1.8c-0.2,3.1-1.1,6-2.5,8.7l1,1C92.9,56.6,93.2,56.1,93.5,55.5z M95,53.6
						c0-0.2,0.1-0.2,0.2-0.2h0.7c0.1,0,0.2,0.1,0.2,0.2v8.9c0,0.2-0.1,0.3-0.3,0.3H95V53.6z"/>
					<path class="st2" d="M95,66.6h-1.5V56.1c-0.2,0.4-0.4,0.8-0.6,1.1l-0.1,0.1l-1.2-1.2l0-0.1c1.4-2.5,2.2-5.4,2.4-8.3h-1.8v-1.9
						H98v1.9h-2.4c-0.2,1.5-0.5,3.1-0.8,4.5H97c0.4-0.1,0.7,0.5,0.7,0.5v11c0,0.3-0.3,0.6-0.6,0.6h-2V66.6z M93.5,66.2h1.1v-2.3h2.3
						c0.2,0,0.4-0.2,0.4-0.4V53c0-0.2-0.1-0.3-0.3-0.3h-2.6l0-0.2c0.4-1.4,0.7-3.1,0.9-5l0-0.1h2.3v-1.1h-4.9v1.1h1.5l0,0
						c-0.2,3.1-1,5.9-2.4,8.5l0.8,0.8c0.2-0.4,0.5-0.9,0.7-1.5l0.1-0.5V66.2z M95.7,62.8h-1.1v-9c0-0.2,0.2-0.4,0.4-0.4h0.8
						c0.2,0,0.4,0.1,0.4,0.3v8.7C96.1,62.6,96,62.8,95.7,62.8z M95,62.8h0.8c0.1,0,0.2-0.1,0.4-0.2v-8.7c-0.2,0-0.2-0.1-0.3-0.1
						h-0.8c-0.1,0-0.1,0-0.1,0.1V62.8z"/>
				</g>
				<g>
					<path class="st2" d="M54,90.5V71.9c0-0.3-0.2-0.5-0.5-0.5H42.1c-0.3,0-0.5,0.2-0.5,0.5v20.2h1.5v-9.8h2.3v5
						c0,0.4,0.2,0.7,0.6,0.7h5.8v-1.5h-5c-0.2,0-0.2-0.1-0.2-0.2v-3.9h6.4v7.6c0,0.3-0.1,0.5-0.4,0.6c-0.2,0.2-0.5,0.2-0.8,0.2
						c-0.6,0-1.4-0.2-2.6-0.6v1.6c2.1,0.5,3.5,0.5,4.3,0C53.8,91.5,54,91.1,54,90.5z M47.3,81.2h-4.1V79h4.1V81.2z M52.9,81.2h-4.1
						V79h4.1V81.2z M52.9,77.5h-2.8c0.4-1.1,0.9-2.3,1.4-3.6l-1.3-0.6c-0.3,1.1-0.9,2.5-1.6,4.2h-5.5v-4.8c0-0.1,0-0.1,0.1-0.1h9.6
						c0.1,0,0.1,0,0.1,0.1V77.5z"/>
					<path class="st2" d="M52,92.4c-0.7,0-1.7-0.1-2.8-0.4l-0.1,0v-1.9l0.1,0c1,0.3,1.8,0.5,2.3,0.5c0.2,0,0.4,0,0.6-0.2
						c0.2-0.1,0.3-0.3,0.3-0.5v-7.7h-6v4c0,0.1,0,0.1,0.1,0.1h5.2V88h-6c-0.5,0-0.8-0.3-0.8-0.8v-4.8h-1.9v9.8h-1.5V72.1
						c0-0.3,0.3-0.6,0.6-0.6h11.5c0.4,0,0.6,0.2,0.6,0.6v18.5c0,0.6-0.2,1.1-0.7,1.4C53.3,92.2,52.8,92.4,52,92.4z M49.2,91.7
						c2.1,0.5,3.6,0.5,4.3,0c0.4-0.3,0.6-0.7,0.6-1.3V71.8c0-0.3-0.1-0.4-0.4-0.4H42.4c-0.2,0-0.4,0.2-0.4,0.4v20.3h1.1v-9.8h2.3
						v5.1c0,0.4,0.2,0.5,0.5,0.5h5.9v-1.1h-4.9c-0.2,0-0.4-0.1-0.4-0.4v-4.1h6.4V90c0,0.3-0.1,0.6-0.4,0.7C52.2,91,51.9,91,51.6,91
						c-0.5,0-1.4-0.2-2.5-0.5V91.7z M52.9,81.2h-4.5V79h4.5V81.2z M48.8,80.8h4.1V79h-4.1V80.8z M47.3,81.2h-4.1V79h4.1V81.2z
						 M43.1,80.8h3.8V79h-3.8V80.8z M52.9,77.5h-3l0.1-0.2c0.4-1,0.9-2.1,1.3-3.4l-1-0.4c-0.3,1-0.9,2.3-1.6,3.9l0,0.1h-5.6v-4.7
						c0-0.1,0.1-0.2,0.2-0.2h9.3c0.1,0,0.2,0.1,0.2,0.2L52.9,77.5z M50.1,77.5h2.4V73l-9.4,0l0,4.5h5.2c0.7-1.6,1.3-3,1.6-4l0-0.1
						l1.5,0.7l0,0.1C51,75.3,50.5,76.5,50.1,77.5z"/>
				</g>
				<g>
					<path class="st2" d="M44.5,74.1c0.5,0.8,1,1.8,1.5,3.2l1.3-0.6c-0.5-1.3-1-2.4-1.5-3.3L44.5,74.1z"/>
					<path class="st2" d="M46,77.5l0-0.1c-0.5-1.4-1-2.5-1.5-3.2L44.3,74l1.5-0.7l0.1,0.1c0.5,0.8,1.1,2,1.5,3.3l0,0.1L46,77.5z
						 M44.7,74.1c0.4,0.7,0.9,1.7,1.4,3l1-0.5c-0.4-1.2-0.9-2.2-1.4-3L44.7,74.1z"/>
				</g>
				<g>
					<path class="st2" d="M36.4,82v10.2h1.5V81.8l1.5-0.2c0.1,0.4,0.2,0.8,0.3,1.2l1.3-0.2c-0.1-1-0.5-2.5-1.1-4.6l-1.3,0.3
						c0.1,0.3,0.3,0.9,0.6,2l-2.7,0.3c1.9-2.6,3.2-5,3.7-7.3L38.8,73c-0.3,1.3-0.9,2.6-1.6,4c-0.6-0.5-1.2-0.9-1.7-1.2
						c1-1.8,1.7-3.3,2.1-4.3l-1.2-0.6c-0.6,1.6-1.3,3-2,4.3c-0.3-0.2-0.5-0.2-0.5-0.3l-0.6,1.2c1.1,0.5,2.1,1.2,3.2,2.1
						c-0.6,1-1.2,1.9-1.8,2.7L33.1,81l0.3,1.3L36.4,82z"/>
					<path class="st2" d="M37.9,92.1h-1.5v-10l-2.7,0.4l-0.4-1.5l1.5-0.2c0.5-0.7,1.1-1.6,1.6-2.5c-1-0.8-1.9-1.5-2.9-2l-0.1-0.1
						l0.6-1.4l0.1,0c0,0,0.1,0,0.4,0.2c0.6-1.3,1.2-2.7,1.8-4.2l0-0.1l1.3,0.7l0,0.1c-0.4,1.1-1,2.5-2,4.3c0.4,0.3,0.9,0.7,1.4,1.1
						c0.7-1.3,1.2-2.6,1.5-3.8l0-0.1l1.5,0.4l0,0.1c-0.5,2.2-1.6,4.6-3.4,7.1l2.1-0.3c-0.3-0.9-0.4-1.6-0.5-1.8l0-0.1l1.5-0.4l0,0.1
						c0.6,2.1,1,3.7,1.1,4.7l0,0.1l-1.5,0.2l0-0.1c-0.1-0.4-0.1-0.7-0.2-1.1l-1.3,0.2V92.1z M36.4,91.7h1.1V81.6l1.9-0.3l0,0.1
						c0.1,0.4,0.2,0.8,0.2,1.1l1.1-0.2c-0.1-0.9-0.5-2.4-1.1-4.4l-1.1,0.3c0.1,0.3,0.3,0.9,0.5,1.8l0,0.1L36,80.6l0.2-0.2
						c1.9-2.5,3.2-4.9,3.7-7.1L38.8,73c-0.3,1.2-0.9,2.5-1.6,3.9L37.1,77L37,76.9c-0.7-0.5-1.2-0.9-1.7-1.2l-0.1-0.1l0.1-0.1
						c1-1.7,1.7-3.2,2.1-4.2l-1-0.5c-0.6,1.5-1.3,2.9-2,4.2l-0.1,0.1L34.2,75c-0.2-0.1-0.3-0.2-0.4-0.2l-0.5,1
						c1.1,0.5,2.1,1.2,3.2,2l0.1,0.1L36.5,78c-0.6,1-1.3,1.9-1.8,2.7l0,0L33.1,81l0.3,1.1l3-0.4V91.7z"/>
				</g>
				<g>
					<polygon class="st2" points="39.6,89.2 40.9,88.9 39.9,83.5 38.6,83.8 					"/>
					<path class="st2" d="M39.5,89.3l-1-5.6l1.5-0.4l1.1,5.7L39.5,89.3z M38.7,83.9l0.9,5.1l1.1-0.2l-1-5.2L38.7,83.9z"/>
				</g>
				<g>
					<path class="st2" d="M34.7,90c0.4-2.1,0.7-4.1,0.8-6.1l-1.3-0.2c-0.1,2.2-0.4,4.2-0.8,6L34.7,90z"/>
					<path class="st2" d="M34.8,90.2l-1.6-0.3l0-0.1c0.4-1.8,0.6-3.8,0.8-6l0-0.1l1.6,0.2l0,0.1c-0.1,2-0.4,4.1-0.8,6.2L34.8,90.2z
						 M33.5,89.7l1.1,0.2c0.4-2,0.6-4,0.7-5.9l-1.1-0.2C34.1,86,33.8,87.9,33.5,89.7z"/>
				</g>
				<g>
					<path class="st2" d="M77.1,89.5c1.6,0.5,3.6,1.4,6,2.8l0.7-1.2c-2.4-1.4-4.5-2.4-6.3-2.9L77.1,89.5z"/>
					<path class="st2" d="M83.2,92.4l-0.1-0.1c-2.4-1.4-4.5-2.3-6-2.8l-0.1,0l0.5-1.5l0.1,0c1.9,0.6,4,1.6,6.3,2.9l0.1,0.1
						L83.2,92.4z M77.2,89.4c1.5,0.5,3.5,1.4,5.8,2.7l0.6-1c-2.3-1.3-4.3-2.3-6.1-2.8L77.2,89.4z"/>
				</g>
				<g>
					<path class="st2" d="M71.4,75.2h-7c-0.1,0-0.2,0.1-0.2,0.2v12.4c0,0.1,0.1,0.2,0.2,0.2H82c0.1,0,0.2-0.1,0.2-0.2V75.4
						c0-0.1-0.1-0.2-0.2-0.2h-9.4c0.3-1,0.6-1.7,0.8-2.3h10.3v-1.5h-21V73h9.5C71.9,73.7,71.7,74.5,71.4,75.2z M80.7,86.4
						c0,0.1,0,0.1-0.1,0.1H65.4c0,0,0,0,0-0.1v-2.2h15.4V86.4z M80.7,82.7H65.3v-2.6h15.4V82.7z M80.6,76.3c0.1,0,0.1,0,0.1,0v2.2
						H65.3v-2.2c0,0,0,0,0,0H80.6z"/>
					<path class="st2" d="M81.9,88H64.1c-0.2,0-0.3-0.1-0.3-0.3V75.1c0-0.2,0.1-0.3,0.3-0.3h6.5c0.2-0.6,0.5-1.3,0.7-1.9h-9v-1.5
						h21.4V73H74c-0.2,0.4-0.4,1.1-0.7,1.9h8.6c0.3,0,0.3,0.2,0.3,0.3v12.5C82.2,87.8,82.1,88,81.9,88z M64.3,75.2
						C64.2,75.2,64.2,75.2,64.3,75.2l-0.1,12.7c0,0.1,0,0.1,0.1,0.1h17.9c0,0,0.1,0,0.1-0.1V75.3c0,0,0-0.1-0.1-0.1l-10.1,0l0.1-0.2
						c0.3-1.1,0.6-1.8,0.8-2.4l0-0.1h10.4v-1.1H62.7v1.1h9.7l-0.1,0.2c-0.3,0.8-0.6,1.6-0.8,2.4l0,0.1H64.3z M65.5,86.9
						c-0.1,0-0.1-0.1-0.2-0.2l0,0v-2.4h15.8v2.4c0,0.1-0.1,0.2-0.2,0.2L65.5,86.9z M65.7,86.5h15v-2.3h-15V86.5z M81.1,83.1H65.3v-3
						h15.8V83.1z M65.7,82.7h15v-2.3h-15V82.7z M81.1,79H65.3v-2.5c0,0,0-0.1,0.1-0.2l0.1,0h15.4c0.1,0,0.2,0.1,0.2,0.1l0,0V79z
						 M65.7,78.6h15v-2.3h-15V78.6z"/>
				</g>
				<g>
					<path class="st2" d="M63.2,92c1.9-0.2,4.1-1.2,6.5-2.7l-0.8-1.1c-1.8,1.3-3.9,2.1-6.2,2.5L63.2,92z"/>
					<path class="st2" d="M63.1,92.1l-0.6-1.5l0.1,0c2.3-0.4,4.3-1.2,6.2-2.5l0.1-0.1l0.9,1.3l-0.1,0.1
						C67.4,90.9,65.2,91.9,63.1,92.1L63.1,92.1z M62.9,90.8l0.4,1.1c1.9-0.3,3.9-1.1,6.2-2.6l-0.6-0.9
						C67.1,89.5,65.1,90.4,62.9,90.8z"/>
				</g>
			</g>
		</g>
		<g>
			<g>
				<g>
					<polygon class="st2" points="39.1,107.4 37.5,102.6 36.9,102.6 35.4,107.4 33.9,102.6 33.2,102.6 35,108.3 35.6,108.3 
						37.2,103.5 38.8,108.3 39.4,108.3 41.2,102.6 40.5,102.6 					"/>
					<path class="st2" d="M39.4,108.7h-0.6c0,0-0.1,0-0.1-0.1l-1.5-4.7l-1.5,4.7c0,0,0,0.1-0.1,0.1H35c0,0-0.1,0-0.1-0.1l-1.9-5.8
						c0,0,0-0.1,0-0.1c0,0,0,0,0.1,0h0.7c0,0,0.1,0,0.1,0.1l1.5,4.7l1.5-4.7c0,0,0-0.1,0.1-0.1h0.5c0,0,0.1,0,0.1,0.1l1.5,4.7
						l1.5-4.7c0,0,0-0.1,0.1-0.1h0.7c0,0,0.1,0,0.1,0c0,0,0,0.1,0,0.1L39.4,108.7C39.5,108.6,39.5,108.7,39.4,108.7z M38.9,108.3
						h0.5l1.8-5.6h-0.5l-1.5,4.9c0,0,0,0.1-0.1,0.1c0,0,0,0,0,0c0,0-0.1,0-0.1-0.1l-1.6-4.9H37l-1.6,4.9c0,0,0,0.1-0.1,0.1
						c0,0,0,0,0,0c0,0-0.1,0-0.1-0.1l-1.5-4.9h-0.5l1.8,5.6h0.5l1.6-4.9c0,0,0-0.1,0.1-0.1l0,0c0,0,0.1,0,0.1,0.1L38.9,108.3z"/>
				</g>
				<g>
					<path class="st2" d="M46.4,102.4c-1.6,0-2.8,1.3-2.8,3c0,1.8,1.2,3,2.9,3c1,0,1.7-0.3,2.3-0.9l-0.3-0.4
						c-0.5,0.5-1.2,0.8-1.9,0.8c-1.4,0-2.2-1-2.3-2.3h4.8v-0.2C49.2,103.8,48.2,102.4,46.4,102.4z M44.5,105.3c0-1,0.7-2.2,2.1-2.2
						c1.4,0,2.1,1.2,2.1,2.2H44.5z"/>
					<path class="st2" d="M46.8,108.5c-1.7,0-3-1.3-3-3.1c0-1.7,1.3-3.1,2.9-3.1c1.9,0,2.8,1.6,2.8,3.2v0.2c0,0.1,0,0.1-0.1,0.1
						h-4.7c0.1,1.2,1,2.1,2.2,2.1c0.7,0,1.4-0.3,1.8-0.8c0,0,0,0,0.1,0c0,0,0.1,0,0.1,0l0.3,0.4c0,0,0,0.1,0,0.1
						C48.5,108.2,47.8,108.5,46.8,108.5z M46.5,102.6c-1.5,0-2.7,1.3-2.7,2.9c0,1.7,1.1,2.9,2.8,2.9c0.9,0,1.6-0.3,2.1-0.8l-0.2-0.3
						c-0.5,0.5-1.2,0.8-1.9,0.8c-1.3,0-2.3-1-2.4-2.4c0,0,0-0.1,0-0.1c0,0,0,0,0.1,0h4.7v-0.1C49.2,104.1,48.3,102.6,46.5,102.6z
						 M48.7,105.3h-4.2c0,0-0.1,0-0.1,0c0,0,0,0,0-0.1c0.1-1.1,0.8-2.3,2.2-2.3C48.2,102.9,48.8,104.3,48.7,105.3
						C48.8,105.2,48.8,105.2,48.7,105.3C48.7,105.3,48.7,105.3,48.7,105.3z M44.6,105.3h4c0-0.8-0.6-2-2-2
						C45.2,103.3,44.7,104.4,44.6,105.3z"/>
				</g>
				<g>
					<path class="st2" d="M55.2,102.4c-0.8,0-1.5,0.4-1.9,1.1v-3.1h-0.8v7.9h0.8v-0.8c0.3,0.6,1.1,1.1,1.9,1.1c1.5,0,2.6-1.2,2.6-3
						C57.8,103.7,56.7,102.4,55.2,102.4z M55.2,107.9c-0.8,0-1.6-0.5-1.9-1v-2.9c0.3-0.5,1.1-1.1,1.9-1.1c1.3,0,2,1.1,2,2.5
						S56.5,107.9,55.2,107.9z"/>
					<path class="st2" d="M55.1,108.8c-0.7,0-1.3-0.3-1.8-0.9v0.7c0,0.1,0,0.1-0.1,0.1h-0.6c-0.1,0-0.1,0-0.1-0.1v-8.1
						c0-0.1,0-0.1,0.1-0.1h0.6c0.1,0,0.1,0,0.1,0.1v2.9c0.5-0.6,1.1-0.9,1.8-0.9c1.5,0,2.5,1.3,2.5,3.2
						C57.6,107.5,56.6,108.8,55.1,108.8z M53.2,107.3C53.2,107.3,53.3,107.4,53.2,107.3c0.5,0.7,1.2,1.1,2,1.1
						c1.5,0,2.5-1.1,2.5-2.9c0-1.8-1-2.9-2.5-2.9c-0.8,0-1.5,0.4-1.9,1c0,0-0.1,0-0.1,0c0,0-0.1,0-0.3-0.1v-3.1h-0.4v7.9h0.4v-0.8
						C53.1,107.4,53.1,107.4,53.2,107.3C53.2,107.3,53.2,107.3,53.2,107.3z M54.9,108c-0.9,0-1.7-0.5-2-1.1c0,0,0,0,0,0v-2.9
						c0,0,0,0,0,0c0.3-0.5,1.1-1.1,2-1.1c1.3,0,2.1,1,2.1,2.6C57,107,56.2,108,54.9,108z M53.3,106.9c0.3,0.5,1,1,1.8,1
						c1.2,0,1.9-0.9,1.9-2.4c0-1.4-0.8-2.4-1.9-2.4c-0.8,0-1.5,0.5-1.8,1V106.9z"/>
				</g>
				<g>
					<rect x="61.9" y="105.3" class="st2" width="3" height="0.8"/>
					<path class="st2" d="M64.8,106H62c-0.1,0-0.1,0-0.1-0.1v-0.6c0-0.1,0-0.1,0.1-0.1h2.8c0.1,0,0.1,0,0.1,0.1L64.8,106
						C64.9,106,64.9,106,64.8,106z M61.9,105.7h2.6v-0.4h-2.6V105.7z"/>
				</g>
				<g>
					<path class="st2" d="M71.3,102.4c-1,0-1.6,0.3-2.2,1l0.3,0.4c0.5-0.6,1.1-0.8,1.8-0.8c0.9,0,1.6,0.5,1.6,1.3v1.2
						c-0.5-0.6-1.2-0.8-2-0.8c-1,0-2,0.7-2,1.9c0,1.2,1,1.9,2,1.9c0.8,0,1.4-0.3,2-0.8v0.6h0.8v-4C73.4,103,72.5,102.4,71.3,102.4z
						 M72.8,107.2c-0.4,0.5-1.1,0.8-1.7,0.8c-1,0-1.6-0.6-1.6-1.4c0-0.8,0.6-1.4,1.6-1.4c0.7,0,1.3,0.3,1.7,0.8V107.2z"/>
					<path class="st2" d="M71.1,108.4c-1,0-2-0.7-2-2c0-1.3,1-2,2-2c0.7,0,1.3,0.2,1.7,0.7v-0.9c0-0.7-0.5-1.2-1.4-1.2
						c-0.7,0-1.1,0.3-1.6,0.8c0,0,0,0-0.1,0c0,0,0,0-0.1,0l-0.3-0.4c0,0,0-0.1,0-0.1c0.6-0.7,1.3-1,2.1-1c1.3,0,2,0.7,2,1.9v4.1
						c0,0.1,0,0.1-0.1,0.1h-0.6c-0.1,0-0.1,0-0.1-0.1v-0.5C72.4,108.2,71.8,108.4,71.1,108.4z M70.9,104.8c-1,0-1.9,0.6-1.9,1.8
						c0,1.2,1,1.8,1.9,1.8c0.8,0,1.4-0.3,1.9-0.8c0,0,0.1,0,0.1,0c0,0,0.1,0,0,0.1v0.6h0.4v-4c0.1-1.6-1.3-1.8-1.9-1.8
						c-0.9,0-1.5,0.3-2.1,0.9l0.2,0.3c0.5-0.6,1.1-0.8,1.8-0.8c1,0,1.6,0.6,1.6,1.4v1.2c0.1,0,0.1,0.1,0,0.1c0,0-0.1,0-0.1,0
						C72.3,105,71.7,104.8,70.9,104.8z M71,108.1c-1,0-1.7-0.6-1.7-1.5c0-0.9,0.7-1.5,1.7-1.5c0.7,0,1.4,0.3,1.8,0.8c0,0,0,0,0,0.1
						v1.3c0,0,0,0,0,0.1C72.4,107.8,71.7,108.1,71,108.1z M71.2,105.3c-0.9,0-1.5,0.6-1.5,1.3c0,0.8,0.6,1.3,1.5,1.3
						c0.7,0,1.3-0.3,1.6-0.7V106C72.5,105.5,71.9,105.3,71.2,105.3z M72.8,107.2L72.8,107.2L72.8,107.2z"/>
				</g>
				<g>
					<path class="st2" d="M79.6,103c0.6,0,1.2,0.2,1.6,0.8l0.4-0.4c-0.5-0.6-1-1-2-1c-1.7,0-2.8,1.3-2.8,3c0,1.7,1.1,3,2.8,3
						c1,0,1.6-0.4,2-1l-0.4-0.4c-0.4,0.6-0.9,0.8-1.6,0.8c-1.3,0-2.2-1.1-2.2-2.5C77.4,104.1,78.2,103,79.6,103z"/>
					<path class="st2" d="M79.5,108.6c-1.7,0-2.9-1.3-2.9-3.1c0-1.8,1.2-3.1,2.9-3.1c0.9,0,1.5,0.3,2.1,1c0,0,0,0.1,0,0.1l-0.4,0.4
						c0,0,0,0-0.1,0c0,0-0.1,0-0.1,0c-0.4-0.5-0.9-0.8-1.5-0.8c-1.2,0-2.1,1-2.1,2.4c0,1.4,0.9,2.4,2.1,2.4c0.6,0,1.1-0.3,1.5-0.8
						c0,0,0,0,0.1,0c0,0,0.1,0,0.1,0l0.4,0.4c0,0,0,0.1,0,0.1C81.1,108.3,80.4,108.6,79.5,108.6z M79.5,102.5
						c-1.6,0-2.7,1.2-2.7,2.9c0,1.7,1.1,2.9,2.7,2.9c0.8,0,1.4-0.3,1.9-0.9l-0.3-0.3c-0.4,0.5-0.9,0.8-1.6,0.8
						c-1.3,0-2.3-1.1-2.3-2.6c0-1.5,0.9-2.6,2.3-2.6c0.7,0,1.2,0.2,1.6,0.8l0.3-0.3C80.9,102.8,80.3,102.5,79.5,102.5z"/>
				</g>
				<g>
					<path class="st2" d="M87.1,103c0.6,0,1.2,0.2,1.6,0.8l0.4-0.4c-0.5-0.6-1-1-2-1c-1.7,0-2.8,1.3-2.8,3c0,1.7,1.1,3,2.8,3
						c1,0,1.6-0.4,2-1l-0.4-0.4c-0.4,0.6-0.9,0.8-1.6,0.8c-1.3,0-2.2-1.1-2.2-2.5C84.9,104.1,85.8,103,87.1,103z"/>
					<path class="st2" d="M87.1,108.6c-1.7,0-2.9-1.3-2.9-3.1c0-1.8,1.2-3.1,2.9-3.1c0.9,0,1.5,0.3,2.1,1c0,0,0,0.1,0,0.1l-0.4,0.4
						c0,0,0,0-0.1,0c0,0-0.1,0-0.1,0c-0.4-0.5-0.9-0.8-1.5-0.8c-1.2,0-2.1,1-2.1,2.4c0,1.4,0.9,2.4,2.1,2.4c0.6,0,1.1-0.3,1.5-0.8
						c0,0,0,0,0.1,0c0,0,0.1,0,0.1,0l0.4,0.4c0,0,0,0.1,0,0.1C88.6,108.3,88,108.6,87.1,108.6z M87.1,102.5c-1.6,0-2.7,1.2-2.7,2.9
						c0,1.7,1.1,2.9,2.7,2.9c0.8,0,1.4-0.3,1.9-0.9l-0.3-0.3c-0.4,0.5-0.9,0.8-1.6,0.8c-1.3,0-2.3-1.1-2.3-2.6
						c0-1.5,0.9-2.6,2.3-2.6c0.7,0,1.2,0.2,1.6,0.8l0.3-0.3C88.5,102.8,87.9,102.5,87.1,102.5z"/>
				</g>
				<g>
					<path class="st2" d="M94.5,102.4c-1.6,0-2.8,1.3-2.8,3c0,1.8,1.2,3,2.9,3c1,0,1.7-0.3,2.3-0.9l-0.3-0.4
						c-0.5,0.5-1.2,0.8-1.9,0.8c-1.4,0-2.2-1-2.3-2.3h4.8v-0.2C97.3,103.8,96.3,102.4,94.5,102.4z M92.5,105.3c0-1,0.7-2.2,2.1-2.2
						c1.4,0,2.1,1.2,2.1,2.2H92.5z"/>
					<path class="st2" d="M94.6,108.5c-1.7,0-3-1.3-3-3.1c0-1.7,1.3-3.1,2.9-3.1c1.9,0,2.8,1.6,2.8,3.2v0.2c0,0.1,0,0.1-0.1,0.1
						h-4.7c0.1,1.2,1,2.1,2.2,2.1c0.7,0,1.4-0.3,1.8-0.8c0,0,0,0,0.1,0c0,0,0.1,0,0.1,0l0.3,0.4c0,0,0,0.1,0,0.1
						C96.3,108.2,95.5,108.5,94.6,108.5z M94.6,102.6c-1.5,0-2.7,1.3-2.7,2.9c0,1.7,1.1,2.9,2.8,2.9c0.9,0,1.6-0.3,2.1-0.8l-0.2-0.3
						c-0.5,0.5-1.2,0.8-1.9,0.8c-1.3,0-2.3-1-2.4-2.4c0,0,0-0.1,0-0.1c0,0,0,0,0.1,0h4.7v-0.1C97.3,104.1,96.5,102.6,94.6,102.6z
						 M96.7,105.3h-4.2c0,0-0.1,0-0.1,0c0,0,0,0,0-0.1c0.1-1.1,0.8-2.3,2.2-2.3C96.2,102.9,96.8,104.3,96.7,105.3
						C96.8,105.2,96.8,105.2,96.7,105.3C96.8,105.3,96.7,105.3,96.7,105.3z M92.6,105.3h4c0-0.8-0.6-2-2-2
						C93.3,103.3,92.7,104.4,92.6,105.3z"/>
				</g>
				<g>
					<path class="st2" d="M100.9,104c0-0.6,0.5-1.1,1.4-1.1c0.8,0,1.4,0.3,1.7,0.8l0.3-0.4c-0.4-0.5-1.1-0.8-2.1-0.8
						c-1.3,0-2.1,0.7-2.1,1.6c0,2.1,3.6,1.2,3.6,2.8c0,0.7-0.6,1.2-1.5,1.2c-0.8,0-1.5-0.4-1.9-0.8l-0.4,0.5
						c0.6,0.6,1.3,0.9,2.2,0.9c1.4,0,2.2-0.8,2.2-1.7C104.5,104.6,100.9,105.5,100.9,104z"/>
					<path class="st2" d="M102.3,108.5c-1,0-1.7-0.3-2.3-0.9c0,0,0-0.1,0-0.1l0.4-0.5c0,0,0.1,0,0.1,0c0.3,0.4,0.9,0.8,1.8,0.8
						c0.9,0,1.4-0.4,1.4-1.1c0-0.7-0.7-0.8-1.6-1.1c-1-0.2-2.1-0.5-2.1-1.7c0-1,0.9-1.7,2.1-1.7c0.9,0,1.6,0.3,2.1,0.9
						c0,0,0,0.1,0,0.1l-0.3,0.4c0,0,0,0-0.1,0c0,0,0,0,0,0c0,0-0.1,0-0.1,0c-0.3-0.5-0.9-0.7-1.6-0.7c-0.8,0-1.4,0.4-1.4,1
						c0,0.6,0.7,0.7,1.5,0.9c1,0.3,2.2,0.5,2.2,1.8C104.6,107.8,103.7,108.5,102.3,108.5z M100.2,107.6c0.5,0.6,1.2,0.8,2.1,0.8
						c1.3,0,2.1-0.6,2.1-1.6c0-1.2-1-1.4-2-1.7c-0.8-0.2-1.6-0.4-1.6-1.1c0-0.7,0.6-1.1,1.5-1.1c0.7,0,1.3,0.3,1.7,0.7l0.2-0.3
						c-0.5-0.5-1.1-0.8-1.9-0.8c-1.2,0-2,0.6-2,1.5c0,1,1,1.3,1.9,1.5c0.8,0.2,1.7,0.4,1.7,1.2c0,0.8-0.7,1.3-1.6,1.3
						c-0.8,0-1.5-0.4-1.9-0.8L100.2,107.6z"/>
				</g>
				<g>
					<path class="st2" d="M108,104c0-0.6,0.5-1.1,1.4-1.1c0.8,0,1.4,0.3,1.7,0.8l0.3-0.4c-0.4-0.5-1.1-0.8-2.1-0.8
						c-1.3,0-2.1,0.7-2.1,1.6c0,2.1,3.6,1.2,3.6,2.8c0,0.7-0.6,1.2-1.5,1.2c-0.8,0-1.5-0.4-1.9-0.8l-0.4,0.5
						c0.6,0.6,1.3,0.9,2.2,0.9c1.4,0,2.2-0.8,2.2-1.7C111.7,104.6,108,105.5,108,104z"/>
					<path class="st2" d="M109.5,108.6c-1,0-1.7-0.3-2.3-0.9c0,0,0-0.1,0-0.1l0.4-0.5c0,0,0.1,0,0.1,0c0.3,0.4,0.9,0.8,1.8,0.8
						c0.9,0,1.4-0.4,1.4-1.1c0-0.7-0.7-0.8-1.6-1.1c-1-0.2-2.1-0.5-2.1-1.7c0-1,0.9-1.7,2.1-1.7c0.9,0,1.6,0.3,2.1,0.9
						c0,0,0,0.1,0,0.1l-0.3,0.4c0,0,0,0-0.1,0c0,0-0.1,0-0.1,0c-0.3-0.5-0.9-0.7-1.6-0.7c-0.8,0-1.4,0.4-1.4,1
						c0,0.6,0.7,0.7,1.5,0.9c1,0.3,2.2,0.5,2.2,1.8C111.7,107.9,110.9,108.6,109.5,108.6z M107.4,107.6c0.5,0.6,1.2,0.8,2.1,0.8
						c1.3,0,2.1-0.6,2.1-1.6c0-1.2-1-1.4-2-1.7c-0.8-0.2-1.6-0.4-1.6-1.1c0-0.7,0.6-1.1,1.5-1.1c0.7,0,1.3,0.3,1.7,0.7l0.2-0.3
						c-0.5-0.5-1.1-0.8-1.9-0.8c-1.2,0-2,0.6-2,1.5c0,1,1,1.3,1.9,1.5c0.8,0.2,1.7,0.4,1.7,1.2c0,0.8-0.7,1.3-1.6,1.3
						c-0.8,0-1.5-0.4-1.9-0.8L107.4,107.6z"/>
				</g>
				<g>
					<rect x="114.9" y="103" class="st2" width="0.8" height="5.3"/>
					<path class="st2" d="M115.6,108.7H115c-0.1,0-0.1,0-0.1-0.1v-5.4c0-0.1,0-0.1,0.1-0.1h0.6c0.1,0,0.1,0,0.1,0.1L115.6,108.7
						C115.7,108.6,115.6,108.7,115.6,108.7z M114.9,108.3h0.4V103h-0.4V108.3z"/>
				</g>
				<g>
					<path class="st2" d="M115.2,100.7c-0.3,0-0.5,0.2-0.5,0.5c0,0.3,0.2,0.5,0.5,0.5c0.3,0,0.5-0.2,0.5-0.5
						C115.7,100.9,115.5,100.7,115.2,100.7z"/>
					<path class="st2" d="M115.2,101.8c-0.3,0-0.6-0.3-0.6-0.6c0-0.3,0.3-0.6,0.6-0.6c0.3,0,0.6,0.2,0.6,0.6
						C115.8,101.5,115.6,101.8,115.2,101.8z M115.2,100.8c-0.2,0-0.4,0.2-0.4,0.4c0,0.2,0.2,0.4,0.4,0.4c0.2,0,0.4-0.2,0.4-0.4
						C115.6,101,115.5,100.8,115.2,100.8z"/>
				</g>
				<g>
					<path class="st2" d="M121.8,102.4c-0.8,0-1.5,0.4-2,1.1v-3.1h-0.8v7.9h0.8v-0.8c0.4,0.6,1.1,1.1,2,1.1c1.5,0,2.6-1.2,2.6-3
						C124.4,103.7,123.3,102.4,121.8,102.4z M121.7,107.9c-0.8,0-1.6-0.5-1.9-1v-2.9c0.3-0.5,1.1-1.1,1.9-1.1c1.3,0,2,1.1,2,2.5
						S123,107.9,121.7,107.9z"/>
					<path class="st2" d="M121.6,108.8c-0.7,0-1.3-0.3-1.8-0.9v0.7c0,0.1,0,0.1-0.1,0.1h-0.6c-0.1,0-0.1,0-0.1-0.1v-8.1
						c0-0.1,0-0.1,0.1-0.1h0.6c0.1,0,0.1,0,0.1,0.1v2.9c0.5-0.6,1.1-0.9,1.8-0.9c1.5,0,2.5,1.3,2.5,3.2
						C124.1,107.5,123.1,108.8,121.6,108.8z M119.8,107.3C119.8,107.3,119.8,107.4,119.8,107.3c0.5,0.7,1.2,1.1,2,1.1
						c1.5,0,2.5-1.1,2.5-2.9c0-1.8-1-2.9-2.5-2.9c-0.8,0-1.5,0.4-1.9,1c0,0-0.1,0-0.1,0c0,0-0.1,0,0.1-0.1v-3.1h-0.4v7.9h0.4
						L119.8,107.3C119.7,107.4,119.7,107.4,119.8,107.3C119.8,107.3,119.8,107.3,119.8,107.3z M121.8,108c-0.9,0-1.7-0.5-2-1.1
						c0,0,0,0,0,0v-2.9c0,0,0,0,0,0c0.3-0.5,1.1-1.1,2-1.1c1.3,0,2.1,1,2.1,2.6C123.9,107,123.1,108,121.8,108z M119.8,106.9
						c0.3,0.5,1,1,1.8,1c1.2,0,1.9-0.9,1.9-2.4c0-1.4-0.8-2.4-1.9-2.4c-0.8,0-1.5,0.5-1.8,1V106.9z"/>
				</g>
				<g>
					<path class="st2" d="M127.9,100.7c-0.3,0-0.5,0.2-0.5,0.5c0,0.3,0.2,0.5,0.5,0.5c0.3,0,0.5-0.2,0.5-0.5
						C128.4,100.9,128.2,100.7,127.9,100.7z"/>
					<path class="st2" d="M127.9,101.8c-0.3,0-0.6-0.3-0.6-0.6c0-0.3,0.3-0.6,0.6-0.6c0.3,0,0.6,0.2,0.6,0.6
						C128.5,101.5,128.3,101.8,127.9,101.8z M127.9,100.8c-0.2,0-0.4,0.2-0.4,0.4c0,0.2,0.2,0.4,0.4,0.4c0.2,0,0.4-0.2,0.4-0.4
						C128.3,101,128.2,100.8,127.9,100.8z"/>
				</g>
				<g>
					<rect x="127.7" y="103" class="st2" width="0.8" height="5.3"/>
					<path class="st2" d="M128.4,108.7h-0.6c-0.1,0-0.1,0-0.1-0.1v-5.4c0-0.1,0-0.1,0.1-0.1h0.6c0.1,0,0.1,0,0.1,0.1L128.4,108.7
						C128.5,108.6,128.4,108.7,128.4,108.7z M127.7,108.3h0.4V103h-0.4V108.3z"/>
				</g>
				<g>
					<rect x="131.8" y="100.4" class="st2" width="0.8" height="7.9"/>
					<path class="st2" d="M132.5,108.7h-0.6c-0.1,0-0.1,0-0.1-0.1v-8.1c0-0.1,0-0.1,0.1-0.1h0.6c0.1,0,0.1,0,0.1,0.1L132.5,108.7
						C132.6,108.6,132.5,108.7,132.5,108.7z M131.8,108.3h0.4v-7.9h-0.4V108.3z"/>
				</g>
				<g>
					<path class="st2" d="M136.4,100.7c-0.3,0-0.5,0.2-0.5,0.5c0,0.3,0.2,0.5,0.5,0.5c0.3,0,0.5-0.2,0.5-0.5
						C136.9,100.9,136.7,100.7,136.4,100.7z"/>
					<path class="st2" d="M136.4,101.8c-0.3,0-0.6-0.3-0.6-0.6c0-0.3,0.3-0.6,0.6-0.6c0.3,0,0.6,0.2,0.6,0.6
						C137,101.5,136.7,101.8,136.4,101.8z M136.4,100.8c-0.2,0-0.4,0.2-0.4,0.4c0,0.2,0.2,0.4,0.4,0.4c0.2,0,0.4-0.2,0.4-0.4
						C136.8,101,136.6,100.8,136.4,100.8z"/>
				</g>
				<g>
					<rect x="136" y="103" class="st2" width="0.8" height="5.3"/>
					<path class="st2" d="M136.6,108.7h-0.6c-0.1,0-0.1,0-0.1-0.1v-5.4c0-0.1,0-0.1,0.1-0.1h0.6c0.1,0,0.1,0,0.1,0.1L136.6,108.7
						C136.7,108.6,136.7,108.7,136.6,108.7z M136.3,108.3h0.4V103h-0.4V108.3z"/>
				</g>
				<g>
					<path class="st2" d="M141.7,107.9c-0.4,0-0.4-0.8-0.4-0.8V103h1.1v-0.4h-1.1v-1.5h-0.8v1.5h-1.1v0.4h1.1v4.2
						c0,0.8,0.3,1.3,1.1,1.3c0.5,0,0.8-0.1,1-0.4l-0.2-0.5C142.2,107.8,141.9,107.9,141.7,107.9z"/>
					<path class="st2" d="M141.6,108.8c-0.7,0-1.1-0.5-1.1-1.3v-4h-1c-0.1-0.2-0.1-0.2-0.1-0.3v-0.5c0-0.1,0.1,0.1,0.1,0.1h1v-1.4
						c0-0.1,0-0.1,0.1-0.1h0.6c0.1,0,0.1,0,0.1,0.1v1.4h1c0.1,0,0.1,0,0.1,0.1v0.6c0,0.1,0,0.1-0.1,0.1h-1v3.9
						c0,0.3,0.1,0.7,0.5,0.7c0.2,0,0.4-0.1,0.5-0.2c0,0,0,0,0.1,0c0,0,0.1,0,0.1,0.1l0.2,0.5c0,0,0,0.1,0,0.1
						C142.3,108.6,142,108.8,141.6,108.8z M139.4,103h1.1c0,0,0.1,0.1,0,0.1v4.1c0,0.8,0.4,1.2,1.1,1.2c0.4,0,0.7-0.1,0.9-0.3
						l-0.2-0.3c-0.1,0.1-0.4,0.2-0.6,0.2c-0.4,0-0.8-0.9-0.8-0.9v-4c0-0.1,0-0.1,0.1-0.1h1v-0.4h-0.9c0,0-0.1,0-0.2-0.1v-1.4h-0.4
						v1.4c0,0,0,0.1,0,0.1h-1.1V103z"/>
				</g>
				<g>
					<path class="st2" d="M147.2,107.7l-2.1-5h-0.7l2.4,5.8l-0.5,1c-0.2,0.5-0.5,0.7-0.9,0.7c-0.1,0-0.4,0-0.5-0.1l-0.1,0.6
						c0.2,0,0.4,0.1,0.6,0.1c0.7,0,1.2-0.3,1.5-1.1l3-7h-0.7L147.2,107.7z"/>
					<path class="st2" d="M145.5,110.9c-0.2,0-0.5,0-0.6-0.1c0,0-0.1-0.1-0.1-0.1l0.1-0.6c0,0,0-0.1,0-0.1c0,0,0.1,0,0.1,0
						c0.1,0.1,0.3,0.1,0.5,0.1c0.3,0,0.6-0.1,0.8-0.6l0.4-1l-2.4-5.8c0,0,0-0.1,0-0.1c0,0,0,0,0.1,0h0.7c0,0,0.1,0,0.1,0.1l2,4.8
						l2-4.8c0,0,0-0.1,0.1-0.1h0.7c0,0,0.1,0,0.1,0c0,0,0,0.1,0,0.1l-3,7C146.7,110.6,146.2,110.9,145.5,110.9z M145,110.5
						c0.1,0,0.3,0.1,0.5,0.1c0.6,0,1.1-0.3,1.4-1l2.9-6.9h-0.5l-2.1,5c0,0,0,0.1-0.1,0.1c0,0,0,0,0,0c0,0-0.1,0-0.1-0.1l-2.1-5h-0.5
						l2.4,5.7c0,0,0,0,0,0.1l-0.5,1c-0.2,0.5-0.5,0.8-1,0.8c-0.1,0-0.3,0-0.4-0.1L145,110.5z"/>
				</g>
				<g>
					<path class="st2" d="M152.3,107.4c-0.3,0-0.5,0.2-0.5,0.5c0,0.3,0.2,0.5,0.5,0.5c0.3,0,0.5-0.3,0.5-0.5
						C152.9,107.7,152.6,107.4,152.3,107.4z"/>
					<path class="st2" d="M152.3,108.6c-0.3,0-0.6-0.3-0.6-0.6c0-0.3,0.3-0.6,0.6-0.6c0.3,0,0.6,0.3,0.6,0.6
						C152.9,108.3,152.6,108.6,152.3,108.6z M152.3,107.5c-0.2,0-0.4,0.2-0.4,0.4c0,0.2,0.2,0.4,0.4,0.4c0.2,0,0.4-0.2,0.4-0.4
						C152.8,107.7,152.5,107.5,152.3,107.5z"/>
				</g>
				<g>
					<path class="st2" d="M159,102.4c-0.8,0-1.6,0.5-2,1v-3h-0.8v7.9h0.4v-4.4c0.4-0.5,1.2-1,1.9-1c0.9,0,1.4,0.3,1.4,1.4v3.9h0.8
						v-4.1C160.8,102.9,160.2,102.4,159,102.4z"/>
					<path class="st2" d="M160.7,108.7h-0.6c-0.1,0-0.1,0-0.1-0.1v-3.9c0-0.9-0.4-1.3-1.3-1.3c-0.7,0-1.4,0.5-1.7,0.9v4.3
						c0,0.1,0,0.1-0.1,0.1h-0.6c-0.1,0-0.1,0-0.1-0.1v-8.1c0-0.1,0-0.1,0.1-0.1h0.6c0.1,0,0.1,0,0.1,0.1v2.9
						c0.4-0.5,1.2-0.9,1.9-0.9c1.2,0,1.8,0.6,1.8,2L160.7,108.7C160.8,108.6,160.7,108.7,160.7,108.7z M160,108.3h0.8v-4
						c0-1.2-0.5-1.8-1.7-1.8c-0.8,0-1.6,0.5-1.9,1c0,0-0.1,0-0.1,0c0,0-0.1,0-0.1-0.1v-3.1h-0.8v7.9h0.4l0-4.3c0,0,0,0,0-0.1
						c0.4-0.5,1.1-1,1.9-1c1,0,1.5,0.5,1.5,1.5V108.3z"/>
				</g>
				<g>
					<polygon class="st2" points="168.4,102.6 164.9,105.9 164.9,100.4 164.2,100.4 164.2,108.3 164.9,108.3 164.9,106.6 
						166.1,105.6 168.4,108.3 169.2,108.3 166.5,105.2 169.2,102.6 					"/>
					<path class="st2" d="M169.1,108.7H168c0,0,0,0-0.1,0l-2.1-2.7l-0.9,0.9v1.7c0,0.1,0,0.1-0.1,0.1h-0.6c-0.1,0-0.1,0-0.1-0.1
						v-8.1c0-0.1,0-0.1,0.1-0.1h0.6c0.1,0,0.1,0,0.1,0.1v5.4l3.3-3.2c0,0,0,0,0.1,0h0.8c0,0,0.1,0,0.1,0.1c0,0,0,0.1,0,0.1l-2.6,2.6
						l2.6,3.1C169.2,108.5,169.2,108.6,169.1,108.7C169.1,108.6,169.1,108.7,169.1,108.7z M168.4,108.3h0.6l-2.6-3c0,0,0-0.1,0-0.1
						l2.5-2.5h-0.6l-3.4,3.3c0,0-0.1,0-0.1,0c0,0-0.1,0-0.1-0.1v-5.5h-0.4v7.9h0.4v-1.7c0,0,0-0.1,0-0.1l1.1-1c0,0,0,0,0.1,0
						c0,0,0,0,0.1,0L168.4,108.3z"/>
				</g>
			</g>
		</g>
		<path class="st3" d="M150,60.1c1.1,3,3.7,5.4,6.8,6.2c0.8,0.2,1.7,0.3,2.5,0.3c1,0,1.9-0.1,2.8-0.4c4.1-1.2,7.2-5.1,7.2-9.6
			c0-5.5-4.5-10-10-10c-4.4,0-8.1,2.9-9.5,6.8c-0.3,1-0.5,2.1-0.5,3.2C149.4,57.8,149.6,59,150,60.1z M161.7,57.8
			c-0.1,0-0.1,0-0.1,0c-0.1,0-0.2,0-0.2,0c0.1,0.7-0.2,0.9-0.2,0.9c-0.2,0.2-0.3,0-0.3,0l-0.6-1.3c-0.1-0.1-0.2-0.2-0.3-0.2
			c0,0,0,0,0,0h0c-0.5,0-0.9-0.1-1.1-0.2c0,0,0,0,0,0c0,0,0,0,0,0c-0.2-0.1-0.4-0.3-0.4-0.4c0,0,0,0,0,0c-0.1,0-0.2,0-0.3,0
			c-0.6,0-1.1-0.2-1.5-0.5c-0.3-0.3-0.4-0.7-0.4-1.1c0.1-0.5,0.3-0.9,0.6-1.1c0.2-0.1,0.4-0.2,0.6-0.2c0.1-0.2,0.2-0.4,0.6-0.7
			c0.4-0.3,0.9-0.2,1-0.2c0.3-0.2,0.6-0.3,1-0.2c0.4,0,0.7,0.1,0.9,0.3c0.2,0,0.3-0.1,0.5,0c0.3,0,0.6,0.2,0.8,0.4
			c0,0.1,0.1,0.1,0.1,0.2c0.4,0.1,0.7,0.2,0.9,0.5c0.3,0.3,0.4,0.7,0.3,1c0,0.2-0.1,0.3-0.1,0.5c0,0,0,0.1,0.1,0.1
			c0.1,0.3,0.1,0.6,0,0.9c-0.1,0.3-0.4,0.6-0.8,0.7c-0.1,0-0.1,0-0.2,0C162.5,57.2,162.3,57.6,161.7,57.8z M152.7,56.7l2-4.4
			c1.2-2.3,3.5-3.7,6.1-3.5c2.9,0.3,5.3,2.8,5.6,5.8c0.2,2.2-1,4.5-2.9,5.8v2.7c0,0.2-0.2,0.4-0.4,0.4c-0.2,0-0.4-0.2-0.4-0.4l0-2.9
			c0-0.1,0.1-0.2,0.2-0.3c1.8-1.2,2.9-3.3,2.7-5.3c-0.2-2.7-2.3-4.9-4.9-5.2c-2.2-0.2-4.3,1-5.3,3.1l-1.9,4.4c0,0.1,0,0.1,0,0.1
			c0,0,0,0.1,0.1,0.1h0.9c0.2,0,0.3,0.2,0.3,0.3v3.3c0,0.3,0.2,0.5,0.5,0.5h2.2c0.2,0,0.3,0.2,0.3,0.3v1.9c0,0.2-0.2,0.4-0.4,0.4
			c-0.2,0-0.4-0.2-0.4-0.4v-1.5h-1.8c-0.7,0-1.2-0.5-1.2-1.2v-2.9h-0.6c-0.3,0-0.5-0.1-0.7-0.4C152.6,57.3,152.6,57,152.7,56.7z"/>
		<path class="st4" d="M103,81.3c-0.7,0-1.2,0.5-1.2,1.2c0,0.1,0.1,0.2,0.2,0.2s0.2-0.1,0.2-0.2c0-0.2,0.1-0.4,0.2-0.5
			c0.1-0.1,0.3-0.2,0.5-0.2c0.1,0,0.2-0.1,0.2-0.2S103.2,81.3,103,81.3z"/>
		<path class="st4" d="M112.6,78.9c-1.5-3.7-5.1-6.4-9.3-6.4c-5.5,0-10,4.5-10,10s4.5,10,10,10c4.2,0,7.9-2.6,9.3-6.4
			c0.4-1.1,0.7-2.3,0.7-3.6C113.3,81.2,113,80,112.6,78.9z M110.6,83c-1.6,2.5-4.3,4-7.3,4c-3,0-5.7-1.5-7.3-4l-0.2-0.3l0.2-0.3
			c1.6-2.5,4.3-4,7.3-4c3,0,5.7,1.5,7.3,4l0.2,0.3L110.6,83z"/>
		<path class="st4" d="M103.4,79.5c-2.5,0-4.8,1.2-6.2,3.3c1.4,2.1,3.7,3.3,6.2,3.3c2.5,0,4.8-1.2,6.2-3.3
			C108.2,80.7,105.8,79.5,103.4,79.5z M103.4,84.9c-1.2,0-2.1-1-2.1-2.1c0-1.2,1-2.1,2.1-2.1c1.2,0,2.1,1,2.1,2.1
			C105.5,84,104.5,84.9,103.4,84.9z"/>
		<path class="st5" d="M130.6,84.1c0.5,0,0.9-0.6,0.9-1.2c-0.1-0.6-0.5-1.1-1.1-1c-0.5,0-0.9,0.6-0.9,1.2
			C129.6,83.7,130.1,84.2,130.6,84.1z"/>
		<path class="st5" d="M140.7,79c-1.2-3.1-3.9-5.5-7.2-6.3c-0.7-0.1-1.4-0.2-2.1-0.2c-0.9,0-1.7,0.1-2.6,0.3
			c-3.2,0.9-5.8,3.3-6.9,6.4c-0.3,1-0.5,2.1-0.5,3.2c0,1.4,0.3,2.6,0.8,3.8c1.5,3.6,5.1,6.2,9.2,6.2c4.3,0,8-2.7,9.4-6.5
			c0.4-1.1,0.6-2.3,0.6-3.5C141.4,81.3,141.1,80.1,140.7,79z M134.8,84.9c-0.8,1-1.6,1.9-1.8,3c-0.2,1.2-1.2,2.1-2.4,2.2
			c-0.2,0-0.4,0-0.6,0c-0.7-0.1-1.3-0.5-1.7-1c-0.4-0.6-0.6-1.2-0.5-1.9c0.1-0.4,0.2-0.7,0.4-1c0.1-0.2,0.4-0.2,0.5-0.1
			c0.2,0.1,0.2,0.4,0.1,0.5c-0.1,0.2-0.2,0.5-0.3,0.7c-0.2,1,0.5,1.9,1.5,2.1c1,0.2,1.9-0.5,2.1-1.5c0.3-1.3,1.1-2.4,2-3.4
			c1.1-1.3,2-2.5,1.9-4.2c-0.2-2.4-2.3-4.1-4.6-3.9c-2.4,0.2-4.1,2.3-3.9,4.6c0,0.2-0.1,0.4-0.4,0.4c-0.2,0-0.4-0.1-0.4-0.4
			c-0.2-2.8,1.9-5.3,4.6-5.5c2.8-0.2,5.3,1.9,5.5,4.6C137.1,82.2,135.9,83.6,134.8,84.9z M130.4,81.2c0.9-0.1,1.7,0.7,1.8,1.7
			c0.1,1-0.6,1.9-1.5,1.9c-0.8,0.1-1.6-0.6-1.8-1.5c0,0,0,0,0-0.1c-0.3-1.7,0-3.1,0.8-4.1c0.5-0.6,1.2-1,1.9-1.1
			c0.9-0.1,1.6,0.1,2.1,0.5c0.5,0.4,0.8,1,0.9,1.9c0,0.2-0.1,0.3-0.3,0.4c-0.2,0-0.3-0.1-0.4-0.3c-0.1-0.6-0.3-1.1-0.7-1.4
			c-0.4-0.3-0.9-0.4-1.6-0.4c-0.6,0-1.1,0.3-1.5,0.8c-0.4,0.5-0.6,1.2-0.7,2C129.7,81.4,130,81.2,130.4,81.2z"/>
		<path class="st6" d="M156.9,72.8c-3.3,0.8-6,3.4-7,6.6c-0.3,1-0.5,2-0.5,3.1c0,1.3,0.2,2.5,0.7,3.6c1.5,3.7,5.1,6.4,9.3,6.4
			c5.5,0,10-4.5,10-10c0-4.8-3.3-8.7-7.8-9.8c-0.7-0.2-1.4-0.2-2.2-0.2C158.5,72.5,157.7,72.6,156.9,72.8z M162.6,87.2
			c-0.8,1.4-2.3,2.2-3.8,2.2c-2.4,0-4.4-2-4.4-4.4c0-1.7,1-3.3,2.6-4l0.1,0l0.1,1l0,0c-1.1,0.6-1.8,1.8-1.8,3c0,1.9,1.6,3.5,3.5,3.5
			c1.5,0,2.8-0.9,3.3-2.3l0-0.1L162.6,87.2L162.6,87.2z M161.8,81.2c0.3,0.6-0.1,1.1-0.7,1.1h-2l0.1,1.1h3.4c0,0,0,0,0,0
			c0,0,0,0,0,0c0,0,0,0,0,0c0,0,0,0,0,0c0,0,0,0,0,0c0,0,0,0,0,0c0,0,0,0,0,0c0,0,0,0,0,0c0,0,0,0,0,0c0,0,0,0,0,0c0,0,0,0,0,0
			c0,0,0,0,0,0c0,0,0,0,0,0c0,0,0,0,0,0c0,0,0,0,0,0c0,0,0,0,0,0c0,0,0,0,0,0c0,0,0,0,0,0c0,0,0,0,0,0c0,0,0,0,0,0c0,0,0,0,0,0
			c0,0,0,0,0,0c0,0,0,0,0,0c0,0,0,0,0,0l1.1,2.4l0.3-0.1c0.1,0,0.2-0.1,0.3-0.1c0.4,0,0.8,0.3,0.8,0.8c0,0.3-0.2,0.5-0.4,0.6l-1,0.5
			l0,0c-0.1,0-0.2,0.1-0.3,0.1c0,0-0.1,0-0.1,0c-0.2,0-0.5-0.2-0.6-0.4l-1.2-2.6h-3.5l0,0c0,0,0,0-0.1,0c0,0,0,0,0,0c0,0,0,0-0.1,0
			c0,0,0,0,0,0c0,0,0,0,0,0c0,0,0,0,0,0c0,0,0,0,0,0c0,0,0,0,0,0c0,0,0,0,0,0c0,0,0,0,0,0c0,0,0,0,0,0c0,0,0,0,0,0c0,0,0,0,0,0
			c0,0,0,0,0,0c0,0,0,0,0,0c0,0,0,0,0,0c0,0,0,0,0,0c0,0,0,0,0,0c0,0,0,0,0,0c0,0,0,0,0,0c0,0,0,0,0,0c0,0,0,0,0,0c0,0,0,0,0,0
			c0,0,0,0,0,0c0,0,0,0,0,0c0,0,0,0,0,0c0,0,0,0,0,0c0,0,0,0,0,0c0,0,0,0,0,0c0,0,0,0,0,0c0,0,0,0,0,0l-0.4-4.7
			c0-0.4,0.3-0.7,0.6-0.8c0,0,0,0,0.1,0c0.4,0,0.7,0.3,0.7,0.7l0.1,1.4h2.1C161.4,80.8,161.6,81,161.8,81.2z M158.1,78
			c-0.7,0-1.3-0.6-1.3-1.3c0-0.7,0.6-1.3,1.3-1.3c0.7,0,1.3,0.6,1.3,1.3C159.4,77.5,158.8,78,158.1,78z"/>
		<path class="st7" d="M134.1,66.2c3.1-0.9,5.6-3.2,6.7-6.3c0.4-1,0.6-2.2,0.6-3.4c0-1.3-0.2-2.5-0.7-3.7c-1.5-3.7-5.1-6.3-9.3-6.3
			c-5.5,0-10,4.5-10,10c0,4.6,3.1,8.5,7.4,9.7c0.8,0.2,1.7,0.3,2.6,0.3C132.3,66.6,133.2,66.5,134.1,66.2z M135.6,56.8h-3.8
			c-0.2,0-0.4-0.2-0.4-0.4c0-0.2,0.2-0.4,0.4-0.4h3.8c0.2,0,0.4,0.2,0.4,0.4C136,56.6,135.8,56.8,135.6,56.8z M135.2,55.6l1.1-3.4
			c0.1-0.2,0.3-0.3,0.5-0.2s0.3,0.3,0.2,0.5l-1.1,3.4c-0.1,0.2-0.3,0.3-0.5,0.2C135.3,56,135.2,55.8,135.2,55.6z M130.1,49
			c0.9,0,1.6,0.7,1.6,1.6c0,0.9-0.7,1.6-1.6,1.6c-0.9,0-1.6-0.7-1.6-1.6C128.4,49.8,129.2,49,130.1,49z M131.1,60.9
			c0,0.2-0.2,0.4-0.4,0.4h-1.5v2.3h0.8c0.1-0.1,0.2,0,0.2,0.1c0,0.1-0.1,0.2-0.2,0.3h-2.3c-0.1,0-0.2-0.1-0.2-0.3
			c0-0.1,0.1-0.2,0.2-0.1h0.7v-2.3H127c-0.2,0-0.4-0.2-0.4-0.4v-0.3c0-0.2,0.2-0.4,0.4-0.4h0.9l2.7,0c0.3,0,0.4,0.2,0.4,0.4V60.9z
			 M128.5,59.4c-0.6-0.1-1-0.7-0.9-1.3l0.6-4.5c0.1-0.6,0.7-1.1,1.3-1l0.3,0c0.5,0.1,0.8,0.4,1,0.8l2.2,0.7c0.3,0.1,0.5,0.4,0.4,0.7
			l0,0.1c-0.1,0.3-0.4,0.5-0.8,0.3l-1.8-0.6l-0.3,2.7h2.5c0.3,0,0.6,0.2,0.8,0.5c0,0.1,0.1,0.2,0.1,0.3l0.6,4.4h0.1
			c0.3,0,0.6,0.3,0.6,0.6c0,0.3-0.3,0.6-0.6,0.6h-0.9c-0.1,0-0.2,0-0.3-0.1c-0.3-0.1-0.6-0.4-0.6-0.8l-0.5-3.6h-0.9L128.5,59.4z"/>
	</g>
	<g>
		<path class="st0" d="M30.9,27.7l2.4-3.7c0.5-0.8,1-1.5,1-2.4c0-0.6-0.2-1-0.7-1c-0.7,0-0.9,0.7-0.9,1.5v0.5h-1.8v-0.5
			c0-1.7,0.8-3,2.7-3c1.7,0,2.6,1,2.6,2.6c0,1.2-0.6,2-1.3,3.1l-1.9,2.9H36v1.5h-5V27.7z"/>
		<path class="st0" d="M37.3,26.4V22c0-1.7,0.8-2.9,2.6-2.9c1.8,0,2.6,1.2,2.6,2.9v4.4c0,1.7-0.9,2.9-2.6,2.9
			C38.2,29.2,37.3,28.1,37.3,26.4z M40.6,26.3V22c0-0.5,0-1.3-0.7-1.3c-0.7,0-0.7,0.8-0.7,1.3v4.3c0,0.5,0.1,1.2,0.7,1.2
			C40.6,27.6,40.6,26.8,40.6,26.3z"/>
		<path class="st0" d="M43.7,27.7l2.4-3.7c0.5-0.8,1-1.5,1-2.4c0-0.6-0.2-1-0.7-1c-0.7,0-0.9,0.7-0.9,1.5v0.5h-1.8v-0.5
			c0-1.7,0.8-3,2.7-3c1.7,0,2.6,1,2.6,2.6c0,1.2-0.6,2-1.3,3.1l-1.9,2.9h2.9v1.5h-5V27.7z"/>
		<path class="st0" d="M49.9,27.7l2.4-3.7c0.5-0.8,1-1.5,1-2.4c0-0.6-0.2-1-0.7-1c-0.7,0-0.9,0.7-0.9,1.5v0.5h-1.8v-0.5
			c0-1.7,0.8-3,2.7-3c1.7,0,2.6,1,2.6,2.6c0,1.2-0.6,2-1.3,3.1L52,27.6h2.9v1.5h-5V27.7z"/>
		<path class="st0" d="M56.3,24.3h3.1v1.2h-3.1V24.3z"/>
		<path class="st0" d="M60.6,27.7L63,24c0.5-0.8,1-1.5,1-2.4c0-0.6-0.2-1-0.7-1c-0.7,0-0.9,0.7-0.9,1.5v0.5h-1.8v-0.5
			c0-1.7,0.8-3,2.7-3c1.7,0,2.6,1,2.6,2.6c0,1.2-0.6,2-1.3,3.1l-1.9,2.9h2.9v1.5h-5V27.7z"/>
		<path class="st0" d="M66.9,26.4V22c0-1.7,0.8-2.9,2.6-2.9c1.8,0,2.6,1.2,2.6,2.9v4.4c0,1.7-0.9,2.9-2.6,2.9
			C67.8,29.2,66.9,28.1,66.9,26.4z M70.3,26.3V22c0-0.5,0-1.3-0.7-1.3c-0.7,0-0.7,0.8-0.7,1.3v4.3c0,0.5,0.1,1.2,0.7,1.2
			C70.2,27.6,70.3,26.8,70.3,26.3z"/>
		<path class="st0" d="M73.4,27.7l2.4-3.7c0.5-0.8,1-1.5,1-2.4c0-0.6-0.2-1-0.7-1c-0.7,0-0.9,0.7-0.9,1.5v0.5h-1.8v-0.5
			c0-1.7,0.8-3,2.7-3c1.7,0,2.6,1,2.6,2.6c0,1.2-0.6,2-1.3,3.1l-1.9,2.9h2.9v1.5h-5V27.7z"/>
		<path class="st0" d="M79.5,26.2v-0.3h1.9v0.3c0,1,0.2,1.4,0.8,1.4c0.6,0,0.8-0.5,0.8-1.4c0-1-0.2-1.5-1.1-1.6c0,0-0.2,0-0.3,0
			v-1.4h0.3c0.9,0,1.1-0.5,1.1-1.5c0-0.8-0.2-1.2-0.8-1.2c-0.6,0-0.8,0.5-0.8,1.3v0.4h-1.9v-0.5c0-1.7,1-2.7,2.6-2.7
			c1.7,0,2.7,0.9,2.7,2.6c0,1.2-0.5,2-1.2,2.2c0.7,0.3,1.2,0.9,1.2,2.3c0,1.8-0.7,3-2.6,3C80.2,29.2,79.5,28,79.5,26.2z"/>
	</g>
</g>
</svg>
